<?xml version="1.0" encoding="UTF-8"?>
<svg version="1.1" xmlns="http://www.w3.org/2000/svg" width="500" height="500">
<path d="M0 0 C0.8553685 -0.00315216 1.710737 -0.00630432 2.59202576 -0.009552 C3.96391808 -0.00651566 3.96391808 -0.00651566 5.36352539 -0.00341797 C6.32206924 -0.00437469 7.2806131 -0.00533142 8.26820374 -0.00631714 C10.29810654 -0.00699688 12.32801154 -0.00515695 14.35791016 -0.00097656 C17.41907842 0.00432166 20.48009638 -0.00090099 23.54125977 -0.00732422 C28.34955803 -0.01114698 33.15602894 0.02360861 37.96380615 0.09411621 C39.59087198 0.11653923 41.21806505 0.13176774 42.84527588 0.1373291 C44.82311702 0.14897177 46.80057733 0.20372312 48.77758789 0.26220703 C49.83405518 0.28428223 50.89052246 0.30635742 51.97900391 0.32910156 C54.52368164 1.12939453 54.52368164 1.12939453 56.30981445 3.89819336 C57.29567242 6.52245526 58.12446675 8.95917733 58.69165039 11.69580078 C58.86245117 12.51113281 59.03325195 13.32646484 59.20922852 14.16650391 C59.37487305 14.99988281 59.54051758 15.83326172 59.71118164 16.69189453 C59.88842773 17.52914062 60.06567383 18.36638672 60.24829102 19.22900391 C61.07203657 23.24595617 61.76827006 27.00512766 61.52368164 31.12939453 C62.18368164 31.12939453 62.84368164 31.12939453 63.52368164 31.12939453 C64.19494294 33.56571343 64.86084518 36.00328336 65.52368164 38.44189453 C65.71446289 39.1321875 65.90524414 39.82248047 66.10180664 40.53369141 C66.90084348 43.48727402 67.52368164 46.05498672 67.52368164 49.12939453 C68.18368164 49.12939453 68.84368164 49.12939453 69.52368164 49.12939453 C69.86979492 50.25474609 69.86979492 50.25474609 70.22290039 51.40283203 C72.43907281 58.35793439 75.11385874 64.68861795 78.52368164 71.12939453 C79.63538667 73.27133212 80.73943023 75.41726176 81.83618164 77.56689453 C82.34793945 78.55560547 82.85969727 79.54431641 83.38696289 80.56298828 C84.52368164 83.12939453 84.52368164 83.12939453 84.52368164 86.12939453 C85.18368164 86.12939453 85.84368164 86.12939453 86.52368164 86.12939453 C87.19523097 87.4185294 87.86077023 88.71079657 88.52368164 90.00439453 C88.89493164 90.72369141 89.26618164 91.44298828 89.64868164 92.18408203 C90.52368164 94.12939453 90.52368164 94.12939453 90.52368164 96.12939453 C91.18368164 96.12939453 91.84368164 96.12939453 92.52368164 96.12939453 C94.56537649 99.03488335 95.52368164 100.53081499 95.52368164 104.12939453 C97.00868164 104.62439453 97.00868164 104.62439453 98.52368164 105.12939453 C101.52368164 109.46272786 101.52368164 109.46272786 101.52368164 112.12939453 C103.00868164 112.62439453 103.00868164 112.62439453 104.52368164 113.12939453 C105.92080438 115.08536637 107.24295793 117.09530393 108.52368164 119.12939453 C110.87975408 122.71371457 112.96106817 125.67930376 116.33618164 128.37939453 C117.05805664 128.95689453 117.77993164 129.53439453 118.52368164 130.12939453 C118.52368164 131.11939453 118.52368164 132.10939453 118.52368164 133.12939453 C119.51368164 133.12939453 120.50368164 133.12939453 121.52368164 133.12939453 C121.75055664 133.91314453 121.97743164 134.69689453 122.21118164 135.50439453 C123.88531206 138.85265536 125.09963491 138.85533063 128.52368164 140.12939453 C131.07252477 142.38186056 133.10140056 144.20565467 134.52368164 147.31689453 C135.39303675 149.34507249 135.39303675 149.34507249 137.71118164 150.00439453 C141.67991711 151.59188872 144.37164799 154.29765992 147.52368164 157.12939453 C151.00584111 160.10196969 154.36765648 162.19635957 158.52368164 164.12939453 C158.52368164 164.78939453 158.52368164 165.44939453 158.52368164 166.12939453 C159.24555664 166.41814453 159.96743164 166.70689453 160.71118164 167.00439453 C163.31534831 168.0460612 165.91951497 169.08772786 168.52368164 170.12939453 C168.52368164 170.78939453 168.52368164 171.44939453 168.52368164 172.12939453 C169.39637695 172.40138672 170.26907227 172.67337891 171.16821289 172.95361328 C174.35754703 174.07117973 177.2127196 175.39153012 180.21118164 176.94189453 C191.57046399 182.74452974 191.57046399 182.74452974 203.52368164 187.12939453 C203.52368164 187.78939453 203.52368164 188.44939453 203.52368164 189.12939453 C204.47243164 189.23251953 205.42118164 189.33564453 206.39868164 189.44189453 C211.25859718 190.12048643 215.86172038 191.63794214 220.52368164 193.12939453 C220.52368164 193.78939453 220.52368164 194.44939453 220.52368164 195.12939453 C222.07055664 195.28408203 222.07055664 195.28408203 223.64868164 195.44189453 C240.99243164 197.59814453 240.99243164 197.59814453 243.52368164 200.12939453 C266.92192203 204.82371235 294.13868339 205.50018923 316.27368164 195.94189453 C318.52368164 195.12939453 318.52368164 195.12939453 322.52368164 195.12939453 C322.52368164 194.46939453 322.52368164 193.80939453 322.52368164 193.12939453 C323.81281651 192.4578452 325.10508368 191.79230594 326.39868164 191.12939453 C327.11797852 190.75814453 327.83727539 190.38689453 328.57836914 190.00439453 C330.52368164 189.12939453 330.52368164 189.12939453 332.52368164 189.12939453 C332.52368164 188.46939453 332.52368164 187.80939453 332.52368164 187.12939453 C335.08514734 184.83290804 336.00335736 184.12939453 339.52368164 184.12939453 C339.77118164 183.55189453 340.01868164 182.97439453 340.27368164 182.37939453 C341.699877 179.81224289 343.4210113 178.16834759 345.52368164 176.12939453 C346.05993164 175.38689453 346.59618164 174.64439453 347.14868164 173.87939453 C347.60243164 173.30189453 348.05618164 172.72439453 348.52368164 172.12939453 C349.18368164 172.12939453 349.84368164 172.12939453 350.52368164 172.12939453 C350.64743164 171.38689453 350.77118164 170.64439453 350.89868164 169.87939453 C351.47854865 167.32797968 352.26076903 165.40263723 353.52368164 163.12939453 C354.18368164 163.12939453 354.84368164 163.12939453 355.52368164 163.12939453 C356.18368164 159.49939453 356.84368164 155.86939453 357.52368164 152.12939453 C358.84368164 152.12939453 360.16368164 152.12939453 361.52368164 152.12939453 C361.74562655 158.25754019 361.4192465 163.24316682 359.52368164 169.12939453 C359.05707491 171.2525932 358.59962512 173.37781408 358.14868164 175.50439453 C356.88176142 181.09299186 355.11006821 186.02991981 352.52368164 191.12939453 C352.1537207 191.87060547 351.78375977 192.61181641 351.40258789 193.37548828 C350.9675293 194.24367188 350.9675293 194.24367188 350.52368164 195.12939453 C349.86368164 195.12939453 349.20368164 195.12939453 348.52368164 195.12939453 C348.35868164 195.93376953 348.19368164 196.73814453 348.02368164 197.56689453 C345.9028963 202.60375971 342.49854758 206.40295771 338.52368164 210.12939453 C337.86368164 210.12939453 337.20368164 210.12939453 336.52368164 210.12939453 C336.27618164 210.74814453 336.02868164 211.36689453 335.77368164 212.00439453 C334.31739525 214.4800814 333.14555658 215.08064456 330.52368164 216.12939453 C330.52368164 216.78939453 330.52368164 217.44939453 330.52368164 218.12939453 C317.42282998 225.52894964 305.45344551 230.96013347 290.45385742 233.1784668 C286.67439479 233.41982034 286.67439479 233.41982034 283.52368164 235.12939453 C280.94178718 235.23030929 278.38721664 235.26910952 275.80493164 235.26220703 C274.64531921 235.26364212 274.64531921 235.26364212 273.46228027 235.2651062 C271.82470621 235.26578794 270.18712945 235.2639341 268.54956055 235.25976562 C266.03436244 235.25441724 263.51934291 235.25971079 261.00415039 235.26611328 C259.41691041 235.2654525 257.82967054 235.26417133 256.24243164 235.26220703 C255.48514771 235.26423126 254.72786377 235.26625549 253.94763184 235.26834106 C248.63863296 235.24434585 248.63863296 235.24434585 247.52368164 234.12939453 C245.86536241 233.8549154 244.19746123 233.63785417 242.52758789 233.44580078 C240.97587891 233.26114258 240.97587891 233.26114258 239.39282227 233.07275391 C238.30163086 232.94707031 237.21043945 232.82138672 236.08618164 232.69189453 C226.32151901 231.56589012 216.83874154 230.37455644 207.52368164 227.12939453 C205.42506794 226.62646452 203.32051942 226.14775874 201.21118164 225.69189453 C196.60968678 224.65368878 192.18221852 223.4535599 187.73461914 221.89111328 C183.70651296 220.50333818 179.61008846 219.33228255 175.52368164 218.12939453 C175.52368164 217.46939453 175.52368164 216.80939453 175.52368164 216.12939453 C174.36868164 215.94376953 173.21368164 215.75814453 172.02368164 215.56689453 C160.57419194 213.02055692 149.58953128 206.9513796 139.52368164 201.12939453 C139.52368164 200.46939453 139.52368164 199.80939453 139.52368164 199.12939453 C138.25137695 198.75814453 138.25137695 198.75814453 136.95336914 198.37939453 C133.22896062 197.02197913 129.99331221 195.21789688 126.64868164 193.12939453 C126.05571289 192.77361328 125.46274414 192.41783203 124.85180664 192.05126953 C123.37074121 191.13669457 121.94155948 190.13915916 120.52368164 189.12939453 C120.52368164 188.46939453 120.52368164 187.80939453 120.52368164 187.12939453 C119.94231445 187.01982422 119.36094727 186.91025391 118.76196289 186.79736328 C112.22710782 184.84717093 106.57948668 178.56702253 101.52368164 174.12939453 C100.85079102 173.54931641 100.17790039 172.96923828 99.48461914 172.37158203 C95.68454275 169.08387549 92.0316735 165.73219698 88.52368164 162.12939453 C87.65743164 161.28376953 86.79118164 160.43814453 85.89868164 159.56689453 C80.52368164 154.05044716 80.52368164 154.05044716 80.52368164 151.12939453 C79.59555664 150.78908203 79.59555664 150.78908203 78.64868164 150.44189453 C75.90957955 148.75009618 75.47343692 147.13695292 74.52368164 144.12939453 C73.86368164 144.12939453 73.20368164 144.12939453 72.52368164 144.12939453 C71.09969474 142.41420377 69.75736004 140.63060333 68.46118164 138.81689453 C67.74833008 137.83076172 67.03547852 136.84462891 66.30102539 135.82861328 C64.52368164 133.12939453 64.52368164 133.12939453 63.52368164 130.12939453 C63.06993164 129.69626953 62.61618164 129.26314453 62.14868164 128.81689453 C59.61249469 126.18316193 57.52368164 122.85302423 57.52368164 119.12939453 C56.86368164 119.12939453 56.20368164 119.12939453 55.52368164 119.12939453 C54.84700166 117.8847867 54.18273445 116.63342557 53.52368164 115.37939453 C53.15243164 114.68330078 52.78118164 113.98720703 52.39868164 113.27001953 C51.52368164 111.12939453 51.52368164 111.12939453 51.52368164 107.12939453 C50.53368164 106.79939453 49.54368164 106.46939453 48.52368164 106.12939453 C47.16996282 103.59338852 46.00902972 101.14382366 44.89868164 98.50439453 C44.58672852 97.80443359 44.27477539 97.10447266 43.95336914 96.38330078 C42.03785106 91.93302385 40.99205942 87.95241982 40.52368164 83.12939453 C39.86368164 83.12939453 39.20368164 83.12939453 38.52368164 83.12939453 C37.53368164 79.49939453 36.54368164 75.86939453 35.52368164 72.12939453 C35.51337418 73.05425156 35.50306671 73.97910858 35.4924469 74.93199158 C35.39464982 83.62898677 35.29216126 92.32591109 35.18434238 101.02278805 C35.12907287 105.49441447 35.07564657 109.96604738 35.02636719 114.43774414 C34.97878287 118.7495722 34.92644248 123.06131821 34.87074089 127.37304878 C34.85029036 129.02173392 34.83158183 130.67044159 34.81460762 132.31916618 C34.79062305 134.62049413 34.76056087 136.92166563 34.72900391 139.22290039 C34.71345963 140.53528183 34.69791534 141.84766327 34.68190002 143.19981384 C34.52368164 146.12939453 34.52368164 146.12939453 33.52368164 147.12939453 C30.43286699 147.23056374 27.36485609 147.26908011 24.27368164 147.26220703 C23.34523437 147.26316376 22.41678711 147.26412048 21.46020508 147.2651062 C19.49308199 147.26578808 17.52595668 147.26393325 15.55883789 147.25976562 C12.53665138 147.25441748 9.51461349 147.25971035 6.49243164 147.26611328 C4.58618131 147.2654525 2.67993107 147.26417134 0.77368164 147.26220703 C-0.59191895 147.26524338 -0.59191895 147.26524338 -1.98510742 147.26834106 C-8.36136867 147.24434422 -8.36136867 147.24434422 -9.47631836 146.12939453 C-9.57284432 144.25644669 -9.59819102 142.37981209 -9.59657288 140.50437927 C-9.59794754 139.28295227 -9.5993222 138.06152527 -9.60073853 136.80308533 C-9.59719892 135.43716407 -9.5935641 134.07124305 -9.58984375 132.70532227 C-9.58956188 131.27662152 -9.5897196 129.84792063 -9.59028625 128.41921997 C-9.59057425 124.52889481 -9.58467723 120.63860022 -9.5777123 116.74828219 C-9.57147906 112.68701248 -9.57087499 108.62574214 -9.56968689 104.56446838 C-9.56657348 96.8686052 -9.55835997 89.17275615 -9.5483374 81.47689921 C-9.53717655 72.71767339 -9.53166588 63.95844692 -9.52664196 55.19921577 C-9.51617737 37.175934 -9.49857775 19.1526654 -9.47631836 1.12939453 C-6.25391216 0.45795477 -3.29384548 0.00351239 0 0 Z " fill="#46ad4b" transform="translate(55.476318359375,181.87060546875)"/>
<path d="M0 0 C0.81919922 0.21358154 1.63839844 0.42716309 2.48242188 0.6472168 C8.23336908 2.23336908 8.23336908 2.23336908 10.5 4.5 C10.5 5.49 10.5 6.48 10.5 7.5 C9.42238403 7.47643433 9.42238403 7.47643433 8.32299805 7.45239258 C-15.98969069 6.99285775 -42.05459746 6.84214122 -61.375 24.0625 C-62.86321991 25.76957578 -64.29710325 27.52484703 -65.6875 29.3125 C-66.285625 30.034375 -66.88375 30.75625 -67.5 31.5 C-68.16 31.5 -68.82 31.5 -69.5 31.5 C-69.7475 32.345625 -69.995 33.19125 -70.25 34.0625 C-71.5 37.5 -71.5 37.5 -73.4375 40.4375 C-76.84143474 46.04698047 -77.41540508 53.11567992 -78.5 59.5 C-79.16 59.5 -79.82 59.5 -80.5 59.5 C-80.5 68.41 -80.5 77.32 -80.5 86.5 C-79.84 86.5 -79.18 86.5 -78.5 86.5 C-78.39453857 87.12455078 -78.28907715 87.74910156 -78.18041992 88.39257812 C-77.69092056 91.26317447 -77.18929989 94.13152937 -76.6875 97 C-76.52185547 97.98226562 -76.35621094 98.96453125 -76.18554688 99.9765625 C-75.15434012 105.81358184 -73.74283426 111.01480751 -71.5 116.5 C-70.24286998 120.46988428 -69.5 123.32175888 -69.5 127.5 C-68.84 127.5 -68.18 127.5 -67.5 127.5 C-66.82942113 129.2902061 -66.1636531 131.08221489 -65.5 132.875 C-65.12875 133.87273437 -64.7575 134.87046875 -64.375 135.8984375 C-63.5 138.5 -63.5 138.5 -63.5 140.5 C-62.84 140.5 -62.18 140.5 -61.5 140.5 C-61.24605469 141.11488281 -60.99210937 141.72976562 -60.73046875 142.36328125 C-60.38628906 143.17152344 -60.04210937 143.97976562 -59.6875 144.8125 C-59.35105469 145.61300781 -59.01460937 146.41351563 -58.66796875 147.23828125 C-57.49721563 149.5053918 -56.36750124 150.79447591 -54.5 152.5 C-49.5 158.03521127 -49.5 158.03521127 -49.5 160.5 C-48.51 160.5 -47.52 160.5 -46.5 160.5 C-46.25121094 159.85546875 -46.00242187 159.2109375 -45.74609375 158.546875 C-44.1181954 154.5664339 -42.35797715 150.65722183 -40.5625 146.75 C-40.21509766 145.97011719 -39.86769531 145.19023437 -39.50976562 144.38671875 C-39.16751953 143.64550781 -38.82527344 142.90429688 -38.47265625 142.140625 C-38.16593994 141.46547852 -37.85922363 140.79033203 -37.54321289 140.09472656 C-36.5 138.5 -36.5 138.5 -33.5 137.5 C-33.4071875 136.324375 -33.4071875 136.324375 -33.3125 135.125 C-32.19193149 130.1255405 -29.87592912 126.01159575 -27.5 121.5 C-26.6625336 119.83540628 -25.82913255 118.16876045 -25 116.5 C-24.58234375 115.66597656 -24.1646875 114.83195312 -23.734375 113.97265625 C-22.94890678 112.39923414 -22.16722798 110.82391037 -21.390625 109.24609375 C-17.26517064 100.89628715 -12.86507492 92.74514152 -8.5 84.5 C17.57 84.5 43.64 84.5 70.5 84.5 C71.82124089 87.14248178 71.62892101 89.11959684 71.63371277 92.07995605 C71.64011024 93.85933815 71.64011024 93.85933815 71.64663696 95.67466736 C71.64618378 96.98278885 71.64573059 98.29091034 71.64526367 99.63867188 C71.64825453 101.02486766 71.65165689 102.41106262 71.65544128 103.79725647 C71.66429186 107.56781767 71.66661981 111.33835619 71.66725707 115.10892677 C71.6682052 118.2527813 71.6718823 121.39663051 71.67542917 124.540483 C71.68357737 131.95456301 71.68601303 139.36863087 71.68530273 146.78271484 C71.6847015 154.44102412 71.69526159 162.09926306 71.7110464 169.75755453 C71.72410221 176.32487874 71.72948747 182.8921799 71.72884732 189.459517 C71.7285918 193.38538489 71.73147274 197.31119028 71.74202538 201.23704529 C71.75167376 204.92732565 71.75180813 208.6174833 71.74450874 212.30776787 C71.74295683 214.31362879 71.75133191 216.31948962 71.75994873 218.32533264 C71.75575424 219.51158737 71.75155975 220.6978421 71.74723816 221.92004395 C71.74778293 222.95538521 71.74832769 223.99072647 71.74888897 225.05744171 C71.5 227.5 71.5 227.5 69.5 229.5 C66.53370503 229.71241769 63.66321891 229.8039558 60.6953125 229.80078125 C59.38202469 229.80720894 59.38202469 229.80720894 58.04220581 229.81376648 C56.18781398 229.81951559 54.33339959 229.82000578 52.47900391 229.81567383 C49.64316173 229.8125202 46.80836886 229.83594325 43.97265625 229.86132812 C42.17187632 229.86360171 40.37109358 229.86430434 38.5703125 229.86328125 C37.72228058 229.872491 36.87424866 229.88170074 36.0005188 229.89118958 C35.20644623 229.88496078 34.41237366 229.87873199 33.59423828 229.87231445 C32.89855743 229.87294388 32.20287659 229.8735733 31.4861145 229.8742218 C28.55353508 229.32166798 27.46748669 228.81128784 25.5 226.5 C24.87470287 223.24461945 24.93663768 220.01057874 24.95410156 216.7043457 C24.94376389 215.69928986 24.93342621 214.69423401 24.92277527 213.65872192 C24.89323668 210.33091362 24.89184573 207.00371061 24.890625 203.67578125 C24.87565086 201.37077161 24.85892535 199.06577272 24.84051514 196.76078796 C24.79674362 190.68956014 24.77682072 184.61847707 24.76177979 178.54711914 C24.74224408 172.35359096 24.70027013 166.16021992 24.66015625 159.96679688 C24.58474788 147.81124627 24.53452073 135.65573065 24.5 123.5 C23.84 123.5 23.18 123.5 22.5 123.5 C22.396875 124.20125 22.29375 124.9025 22.1875 125.625 C21.40640997 128.89137647 20.07941257 131.5471852 18.5 134.5 C17.84 134.5 17.18 134.5 16.5 134.5 C16.42136719 135.15742188 16.34273438 135.81484375 16.26171875 136.4921875 C15.22872958 140.57117039 13.32498406 143.94917788 11.3125 147.625 C10.90467285 148.38200195 10.4968457 149.13900391 10.07666016 149.91894531 C8.89094579 152.11623834 7.69680201 154.30873113 6.5 156.5 C5.94441406 157.52351562 5.38882813 158.54703125 4.81640625 159.6015625 C3.86321853 161.35294807 2.90752896 163.10297456 1.94921875 164.8515625 C-3.97446238 175.67704985 -9.73711612 186.58841713 -15.5 197.5 C-16.16 197.5 -16.82 197.5 -17.5 197.5 C-17.603125 198.180625 -17.70625 198.86125 -17.8125 199.5625 C-18.64725019 203.12915989 -19.99472754 206.16222194 -21.5 209.5 C-22.16 209.5 -22.82 209.5 -23.5 209.5 C-23.603125 210.015625 -23.70625 210.53125 -23.8125 211.0625 C-24.74263866 214.36026435 -26.11395512 217.36633332 -27.5 220.5 C-28.16 220.5 -28.82 220.5 -29.5 220.5 C-29.62375 221.056875 -29.7475 221.61375 -29.875 222.1875 C-30.55976855 224.72114364 -31.49133763 227.07921032 -32.5 229.5 C-35.5 229.5 -35.5 229.5 -37.85546875 227.38671875 C-40.57856997 224.41423455 -43.23029272 221.40732324 -45.8125 218.3125 C-46.4940918 217.51295898 -46.4940918 217.51295898 -47.18945312 216.69726562 C-50.5 212.73954417 -50.5 212.73954417 -50.5 210.5 C-51.428125 210.12875 -51.428125 210.12875 -52.375 209.75 C-54.94249816 208.23970696 -55.21815729 207.13908792 -56.5 204.5 C-57.36625 203.63375 -58.2325 202.7675 -59.125 201.875 C-60.300625 200.699375 -60.300625 200.699375 -61.5 199.5 C-61.5 198.84 -61.5 198.18 -61.5 197.5 C-62.49 197.17 -63.48 196.84 -64.5 196.5 C-67.5 192.16666667 -67.5 192.16666667 -67.5 189.5 C-68.16 189.5 -68.82 189.5 -69.5 189.5 C-73.5 184.20588235 -73.5 184.20588235 -73.5 180.5 C-74.49 180.17 -75.48 179.84 -76.5 179.5 C-78.2890625 176.91796875 -78.2890625 176.91796875 -80.125 173.6875 C-80.73601562 172.62917969 -81.34703125 171.57085937 -81.9765625 170.48046875 C-83.21069732 168.06599472 -84.0265992 166.14208827 -84.5 163.5 C-85.16 163.5 -85.82 163.5 -86.5 163.5 C-87.17408308 162.23308493 -87.83900497 160.96129251 -88.5 159.6875 C-88.87125 158.97980469 -89.2425 158.27210938 -89.625 157.54296875 C-90.5 155.5 -90.5 155.5 -90.5 152.5 C-91.16 152.5 -91.82 152.5 -92.5 152.5 C-93.17057887 150.7097939 -93.8363469 148.91778511 -94.5 147.125 C-94.87125 146.12726563 -95.2425 145.12953125 -95.625 144.1015625 C-96.5 141.5 -96.5 141.5 -96.5 139.5 C-97.16 139.5 -97.82 139.5 -98.5 139.5 C-98.75394531 138.7265625 -99.00789063 137.953125 -99.26953125 137.15625 C-101.57522799 130.15969982 -101.57522799 130.15969982 -104.125 123.25 C-106.29416152 117.33410494 -107.81891003 111.87820063 -107.5 105.5 C-108.16 105.5 -108.82 105.5 -109.5 105.5 C-111.03169377 95.55766636 -111.71384245 85.75059686 -111.75 75.6875 C-111.75902344 74.66342041 -111.76804687 73.63934082 -111.77734375 72.58422852 C-111.71768637 57.10189511 -108.54314791 41.3111262 -99.5 28.5 C-99.17 27.84 -98.84 27.18 -98.5 26.5 C-97.84 26.5 -97.18 26.5 -96.5 26.5 C-96.273125 25.7575 -96.04625 25.015 -95.8125 24.25 C-94.22462601 20.92302592 -92.43990588 19.68783693 -89.5 17.5 C-88.736875 16.71625 -87.97375 15.9325 -87.1875 15.125 C-78.35714286 6.5 -78.35714286 6.5 -73.5 6.5 C-73.5 5.84 -73.5 5.18 -73.5 4.5 C-72.08774074 3.82404685 -70.66997095 3.15959941 -69.25 2.5 C-68.46109375 2.12875 -67.6721875 1.7575 -66.859375 1.375 C-64.5 0.5 -64.5 0.5 -60.5 0.5 C-60.5 -0.16 -60.5 -0.82 -60.5 -1.5 C-40.24152639 -6.02629671 -20.03367599 -5.2319068 0 0 Z " fill="white" transform="translate(226.5,96.5)"/>
<path d="M0 0 C56.43 0 112.86 0 171 0 C172.55475264 3.10950529 172.14199524 6.4044703 172.1328125 9.81640625 C172.13376923 10.58806625 172.13472595 11.35972626 172.13571167 12.1547699 C172.13639246 13.78636761 172.1345452 15.41796803 172.13037109 17.04956055 C172.12501413 19.55588821 172.13032319 22.06203725 172.13671875 24.56835938 C172.13605809 26.15104206 172.13477719 27.73372464 172.1328125 29.31640625 C172.13483673 30.07055313 172.13686096 30.82470001 172.13894653 31.60169983 C172.11495624 36.88504376 172.11495624 36.88504376 171 38 C169.09756238 38.09391296 167.19161541 38.11743658 165.28686523 38.11352539 C164.04851929 38.11340454 162.81017334 38.11328369 161.53430176 38.11315918 C160.22231812 38.10804321 158.91033447 38.10292725 157.55859375 38.09765625 C156.36045044 38.09664917 155.16230713 38.09564209 153.92785645 38.09460449 C149.4310613 38.08935305 144.93427974 38.07539195 140.4375 38.0625 C130.393125 38.041875 120.34875 38.02125 110 38 C110 73.64 110 109.28 110 146 C94.16 146 78.32 146 62 146 C62 110.36 62 74.72 62 38 C41.54 38 21.08 38 0 38 C0 25.46 0 12.92 0 0 Z " fill="white" transform="translate(316,181)"/>
<path d="M0 0 C1.70833008 0.0009668 1.70833008 0.0009668 3.45117188 0.00195312 C11.79679528 0.04679528 11.79679528 0.04679528 12.9375 1.1875 C14.70941588 1.48317384 16.48235383 1.77368151 18.25927734 2.03759766 C28.08035278 3.51643033 36.77289313 6.44547226 45.9375 10.1875 C46.9275 10.5175 47.9175 10.8475 48.9375 11.1875 C48.9375 11.8475 48.9375 12.5075 48.9375 13.1875 C49.494375 13.27386719 50.05125 13.36023438 50.625 13.44921875 C55.90980157 14.42226498 59.70195022 16.00229725 64.140625 19.01171875 C66.29564101 20.42184879 68.50640919 21.35181253 70.9375 22.1875 C70.9375 22.8475 70.9375 23.5075 70.9375 24.1875 C71.47375 24.290625 72.01 24.39375 72.5625 24.5 C75.58762928 25.37569532 78.1879489 26.65997161 80.9375 28.1875 C81.2675 28.8475 81.5975 29.5075 81.9375 30.1875 C83.58801288 31.30384152 83.58801288 31.30384152 85.5 32.3125 C86.634375 32.93125 87.76875 33.55 88.9375 34.1875 C88.9375 34.8475 88.9375 35.5075 88.9375 36.1875 C89.51886719 36.45046875 90.10023438 36.7134375 90.69921875 36.984375 C93.04753822 38.24664794 94.77547845 39.65198561 96.75 41.4375 C99.26367695 43.70027389 101.8012786 45.88257732 104.4375 48 C109.38105806 52.21622998 114.15961055 57.58146275 117.04296875 63.4296875 C117.8125066 65.37263511 117.8125066 65.37263511 119.9375 66.1875 C119.6075 67.8375 119.2775 69.4875 118.9375 71.1875 C113.81478959 71.36154669 108.69382723 71.48802903 103.56884766 71.57202148 C101.82863358 71.60705827 100.08862312 71.65470509 98.34912109 71.71557617 C82.01773998 72.27243415 82.01773998 72.27243415 77.2109375 67.99609375 C76.10468823 66.73970155 75.01269071 65.47057201 73.9375 64.1875 C72.71024642 63.20283932 71.45194157 62.25548479 70.1640625 61.3515625 C69.56722656 60.92746094 68.97039062 60.50335938 68.35546875 60.06640625 C67.76378906 59.65261719 67.17210937 59.23882812 66.5625 58.8125 C65.94761719 58.37550781 65.33273437 57.93851563 64.69921875 57.48828125 C61.42549611 55.16341743 61.42549611 55.16341743 57.9375 53.1875 C57.9375 52.5275 57.9375 51.8675 57.9375 51.1875 C57.091875 50.960625 56.24625 50.73375 55.375 50.5 C51.9025512 49.17415591 49.54926483 47.57211284 46.6171875 45.36328125 C44.51867578 43.89432305 42.36077141 42.99525714 39.9375 42.1875 C39.9375 41.5275 39.9375 40.8675 39.9375 40.1875 C39.2775 40.084375 38.6175 39.98125 37.9375 39.875 C34.09908991 38.99536436 30.60653309 37.61780104 26.9375 36.1875 C26.9375 35.5275 26.9375 34.8675 26.9375 34.1875 C26.01130859 34.00574219 26.01130859 34.00574219 25.06640625 33.8203125 C20.66359271 32.94913174 16.26400525 32.06348505 11.875 31.125 C11.14152344 30.96902344 10.40804687 30.81304687 9.65234375 30.65234375 C7.9375 30.1875 7.9375 30.1875 6.9375 29.1875 C1.73555655 28.23559798 -3.29849572 28.03424953 -8.5625 28.0625 C-9.28308594 28.05863281 -10.00367188 28.05476563 -10.74609375 28.05078125 C-22.47878723 28.07199769 -37.45306979 31.57806979 -46.0625 40.1875 C-47.0525 40.1875 -48.0425 40.1875 -49.0625 40.1875 C-49.330625 40.826875 -49.59875 41.46625 -49.875 42.125 C-51.0625 44.1875 -51.0625 44.1875 -54.0625 45.1875 C-54.371875 45.826875 -54.68125 46.46625 -55 47.125 C-56.0625 49.1875 -56.0625 49.1875 -58.0625 50.125 C-60.84759187 51.60458006 -61.08535967 53.256079 -62.0625 56.1875 C-63.335023 59.07188547 -64.57771194 61.19966955 -67.0625 63.1875 C-68.0525 63.1875 -69.0425 63.1875 -70.0625 63.1875 C-70.88618854 49.82544146 -69.00571968 34.81715539 -60.0625 24.1875 C-59.4025 24.1875 -58.7425 24.1875 -58.0625 24.1875 C-57.80339844 23.60484375 -57.54429687 23.0221875 -57.27734375 22.421875 C-55.97363752 20.02406162 -54.54504467 18.36993206 -52.625 16.4375 C-52.02816406 15.82390625 -51.43132812 15.2103125 -50.81640625 14.578125 C-49.0625 13.1875 -49.0625 13.1875 -46.0625 13.1875 C-45.7325 12.1975 -45.4025 11.2075 -45.0625 10.1875 C-41.5690403 8.44077015 -38.99404432 7.1875 -35.0625 7.1875 C-35.0625 6.5275 -35.0625 5.8675 -35.0625 5.1875 C-33.27166094 4.72594354 -31.4797701 4.26846796 -29.6875 3.8125 C-28.68976563 3.55726562 -27.69203125 3.30203125 -26.6640625 3.0390625 C-25.47554687 2.75804688 -24.28703125 2.47703125 -23.0625 2.1875 C-22.34102783 2.00888428 -21.61955566 1.83026855 -20.8762207 1.64624023 C-13.88788258 0.05640569 -7.14560637 -0.07925658 0 0 Z " fill="#44AC4A" transform="translate(223.0625,106.8125)"/>
<path d="M0 0 C8.25 0 16.5 0 25 0 C25 6.76144905 24.46046796 9.1563886 22 15 C21.34 15 20.68 15 20 15 C19.896875 15.721875 19.79375 16.44375 19.6875 17.1875 C18.93206053 20.27793421 17.84468685 22.41743841 16 25 C15.34 25 14.68 25 14 25 C13.773125 25.721875 13.54625 26.44375 13.3125 27.1875 C10.04623251 34.18664462 1.77169955 40.24807166 -5.42578125 42.890625 C-7.264304 43.3478065 -9.13126354 43.68854392 -11 44 C-11 44.66 -11 45.32 -11 46 C-21.06701806 48.5010248 -30.66885307 49.61090486 -41 50 C-41 48.68 -41 47.36 -41 46 C-39.58671871 45.18162558 -38.16921654 44.37053781 -36.75 43.5625 C-35.56664062 42.88380859 -35.56664062 42.88380859 -34.359375 42.19140625 C-32 41 -32 41 -29.765625 40.46484375 C-29.18296875 40.31144531 -28.6003125 40.15804687 -28 40 C-27.67 39.34 -27.34 38.68 -27 38 C-25.75362528 37.34686542 -24.47737191 36.74987458 -23.1875 36.1875 C-19.39233962 34.36420231 -17.45601369 32.47229521 -15 29 C-14.195625 28.236875 -13.39125 27.47375 -12.5625 26.6875 C-5.25220441 19.02060463 -2.27985016 10.25932572 0 0 Z " fill="#44AC4A" transform="translate(384,331)"/>
<path d="M0 0 C56.43 0 112.86 0 171 0 C172.55475264 3.10950529 172.14199524 6.4044703 172.1328125 9.81640625 C172.13376923 10.58806625 172.13472595 11.35972626 172.13571167 12.1547699 C172.13639246 13.78636761 172.1345452 15.41796803 172.13037109 17.04956055 C172.12501413 19.55588821 172.13032319 22.06203725 172.13671875 24.56835938 C172.13605809 26.15104206 172.13477719 27.73372464 172.1328125 29.31640625 C172.13483673 30.07055313 172.13686096 30.82470001 172.13894653 31.60169983 C172.11495624 36.88504376 172.11495624 36.88504376 171 38 C169.09756238 38.09391296 167.19161541 38.11743658 165.28686523 38.11352539 C164.04851929 38.11340454 162.81017334 38.11328369 161.53430176 38.11315918 C160.22231812 38.10804321 158.91033447 38.10292725 157.55859375 38.09765625 C156.36045044 38.09664917 155.16230713 38.09564209 153.92785645 38.09460449 C149.4310613 38.08935305 144.93427974 38.07539195 140.4375 38.0625 C130.393125 38.041875 120.34875 38.02125 110 38 C110 73.64 110 109.28 110 146 C94.16 146 78.32 146 62 146 C62 110.36 62 74.72 62 38 C41.54 38 21.08 38 0 38 C0 37.67 0 37.34 0 37 C20.79 37 41.58 37 63 37 C63 72.31 63 107.62 63 144 C78.18 144 93.36 144 109 144 C109 108.69 109 73.38 109 37 C128.8 36.67 148.6 36.34 169 36 C169.33 24.78 169.66 13.56 170 2 C113.9 2 57.8 2 0 2 C0 1.34 0 0.68 0 0 Z " fill="white" transform="translate(316,181)"/>
<path d="M0 0 C26.07 0 52.14 0 79 0 C80.32124089 2.64248178 80.12892101 4.61959684 80.13371277 7.57995605 C80.14011024 9.35933815 80.14011024 9.35933815 80.14663696 11.17466736 C80.14595718 13.13684959 80.14595718 13.13684959 80.14526367 15.13867188 C80.14825453 16.52486766 80.15165689 17.91106262 80.15544128 19.29725647 C80.16429186 23.06781767 80.16661981 26.83835619 80.16725707 30.60892677 C80.1682052 33.7527813 80.1718823 36.89663051 80.17542917 40.040483 C80.18357737 47.45456301 80.18601303 54.86863087 80.18530273 62.28271484 C80.1847015 69.94102412 80.19526159 77.59926306 80.2110464 85.25755453 C80.22410221 91.82487874 80.22948747 98.3921799 80.22884732 104.959517 C80.2285918 108.88538489 80.23147274 112.81119028 80.24202538 116.73704529 C80.25167376 120.42732565 80.25180813 124.1174833 80.24450874 127.80776787 C80.24295683 129.81362879 80.25133191 131.81948962 80.25994873 133.82533264 C80.25575424 135.01158737 80.25155975 136.1978421 80.24723816 137.42004395 C80.24778293 138.45538521 80.24832769 139.49072647 80.24888897 140.55744171 C80 143 80 143 78 145 C75.03370503 145.21241769 72.16321891 145.3039558 69.1953125 145.30078125 C67.88202469 145.30720894 67.88202469 145.30720894 66.54220581 145.31376648 C64.68781398 145.31951559 62.83339959 145.32000578 60.97900391 145.31567383 C58.14316173 145.3125202 55.30836886 145.33594325 52.47265625 145.36132812 C50.67187632 145.36360171 48.87109358 145.36430434 47.0703125 145.36328125 C46.22228058 145.372491 45.37424866 145.38170074 44.5005188 145.39118958 C43.70644623 145.38496078 42.91237366 145.37873199 42.09423828 145.37231445 C41.05071701 145.37325859 41.05071701 145.37325859 39.9861145 145.3742218 C37.05353508 144.82166798 35.96748669 144.31128784 34 142 C33.37470287 138.74461945 33.43663768 135.51057874 33.45410156 132.2043457 C33.44376389 131.19928986 33.43342621 130.19423401 33.42277527 129.15872192 C33.39323668 125.83091362 33.39184573 122.50371061 33.390625 119.17578125 C33.37565086 116.87077161 33.35892535 114.56577272 33.34051514 112.26078796 C33.29674362 106.18956014 33.27682072 100.11847707 33.26177979 94.04711914 C33.24224408 87.85359096 33.20027013 81.66021992 33.16015625 75.46679688 C33.08474788 63.31124627 33.03452073 51.15573065 33 39 C32.34 39 31.68 39 31 39 C31.53164548 34.21519067 32.23111619 33.76888381 36 30 C36.33 66.63 36.66 103.26 37 141 C57.295 141.495 57.295 141.495 78 142 C78 95.8 78 49.6 78 2 C52.26 2 26.52 2 0 2 C0 1.34 0 0.68 0 0 Z " fill="white" transform="translate(218,181)"/>
<path d="M0 0 C0.8553685 -0.00315216 1.710737 -0.00630432 2.59202576 -0.009552 C3.96391808 -0.00651566 3.96391808 -0.00651566 5.36352539 -0.00341797 C6.32206924 -0.00437469 7.2806131 -0.00533142 8.26820374 -0.00631714 C10.29810654 -0.00699688 12.32801154 -0.00515695 14.35791016 -0.00097656 C17.41907842 0.00432166 20.48009638 -0.00090099 23.54125977 -0.00732422 C33.91614257 -0.0104959 44.18738316 0.14541209 54.52368164 1.12939453 C54.52368164 1.45939453 54.52368164 1.78939453 54.52368164 2.12939453 C34.06368164 2.12939453 13.60368164 2.12939453 -7.47631836 2.12939453 C-7.47631836 49.31939453 -7.47631836 96.50939453 -7.47631836 145.12939453 C5.72368164 145.12939453 18.92368164 145.12939453 32.52368164 145.12939453 C32.52368164 116.41939453 32.52368164 87.70939453 32.52368164 58.12939453 C33.51368164 58.62439453 33.51368164 58.62439453 34.52368164 59.12939453 C36.14227108 67.97082966 35.56829607 77.08249037 35.43774414 86.03564453 C35.41594582 87.76916074 35.39449758 89.50268139 35.37338257 91.23620605 C35.3281077 94.85039961 35.27889934 98.46451174 35.22680664 102.07861328 C35.16018459 106.72025628 35.10306732 111.36195958 35.04877663 116.00376129 C35.00606193 119.57414855 34.95861414 123.1444605 34.90967941 126.71476746 C34.88673644 128.42764956 34.86523251 130.14055155 34.84517288 131.85346985 C34.81652942 134.23525464 34.78158361 136.61686294 34.74487305 138.99853516 C34.73754654 139.71015808 34.73022003 140.42178101 34.72267151 141.15496826 C34.63797952 146.01509666 34.63797952 146.01509666 33.52368164 147.12939453 C30.43286699 147.23056374 27.36485609 147.26908011 24.27368164 147.26220703 C23.34523437 147.26316376 22.41678711 147.26412048 21.46020508 147.2651062 C19.49308199 147.26578808 17.52595668 147.26393325 15.55883789 147.25976562 C12.53665138 147.25441748 9.51461349 147.25971035 6.49243164 147.26611328 C4.58618131 147.2654525 2.67993107 147.26417134 0.77368164 147.26220703 C-0.59191895 147.26524338 -0.59191895 147.26524338 -1.98510742 147.26834106 C-8.36136867 147.24434422 -8.36136867 147.24434422 -9.47631836 146.12939453 C-9.57284432 144.25644669 -9.59819102 142.37981209 -9.59657288 140.50437927 C-9.59794754 139.28295227 -9.5993222 138.06152527 -9.60073853 136.80308533 C-9.59719892 135.43716407 -9.5935641 134.07124305 -9.58984375 132.70532227 C-9.58956188 131.27662152 -9.5897196 129.84792063 -9.59028625 128.41921997 C-9.59057425 124.52889481 -9.58467723 120.63860022 -9.5777123 116.74828219 C-9.57147906 112.68701248 -9.57087499 108.62574214 -9.56968689 104.56446838 C-9.56657348 96.8686052 -9.55835997 89.17275615 -9.5483374 81.47689921 C-9.53717655 72.71767339 -9.53166588 63.95844692 -9.52664196 55.19921577 C-9.51617737 37.175934 -9.49857775 19.1526654 -9.47631836 1.12939453 C-6.25391216 0.45795477 -3.29384548 0.00351239 0 0 Z " fill="#46ad4b" transform="translate(55.476318359375,181.87060546875)"/>
<path d="M0 0 C20.79 0 41.58 0 63 0 C66.42687747 11.4229249 66.42687747 11.4229249 67.6875 17.3125 C67.93886719 18.46363281 68.19023438 19.61476562 68.44921875 20.80078125 C68.93498738 23.62237348 69.11237117 26.14791259 69 29 C69.66 29 70.32 29 71 29 C71.67126129 31.4363189 72.33716354 33.87388883 73 36.3125 C73.19078125 37.00279297 73.3815625 37.69308594 73.578125 38.40429688 C74.37716184 41.35787949 75 43.92559219 75 47 C75.66 47 76.32 47 77 47 C77.99 51.455 77.99 51.455 79 56 C78.34 56 77.68 56 77 56 C75.65605627 52.6708399 74.32672958 49.33605192 73 46 C72.72671875 45.33226562 72.4534375 44.66453125 72.171875 43.9765625 C70.2118285 39.03474314 68.94678134 34.00787661 67.74609375 28.83203125 C67.07309864 26.0289059 67.07309864 26.0289059 66.0078125 23.5703125 C64.78224403 20.44463788 64.11903382 17.34884896 63.4375 14.0625 C63.18871094 12.87785156 62.93992188 11.69320312 62.68359375 10.47265625 C62.06417471 7.32600751 61.52723343 4.16340057 61 1 C41.2 1 21.4 1 1 1 C1 47.53 1 94.06 1 142 C0.67 142 0.34 142 0 142 C0 95.14 0 48.28 0 0 Z " fill="#46ad4b" transform="translate(48,184)"/>
<path d="M0 0 C0.99 0.33 1.98 0.66 3 1 C3.22194491 7.12814566 2.89556486 12.11377229 1 18 C0.53339327 20.12319867 0.07594348 22.24841955 -0.375 24.375 C-1.64192022 29.96359732 -3.41361343 34.90052527 -6 40 C-6.36996094 40.74121094 -6.73992187 41.48242188 -7.12109375 42.24609375 C-7.41113281 42.82488281 -7.70117188 43.40367187 -8 44 C-8.66 44 -9.32 44 -10 44 C-10.66 45.32 -11.32 46.64 -12 48 C-11.5132747 44.78761303 -10.71888156 42.37288964 -9.375 39.375 C-7.60907324 36.088128 -7.60907324 36.088128 -9 33 C-9.33 32.01 -9.66 31.02 -10 30 C-14.07034397 30.78016719 -14.07034397 30.78016719 -18 32 C-19.3762794 33.91764174 -19.3762794 33.91764174 -20 36 C-23 38 -23 38 -26 38 C-26 37.34 -26 36.68 -26 36 C-23.4385343 33.70351351 -22.52032428 33 -19 33 C-18.7525 32.4225 -18.505 31.845 -18.25 31.25 C-16.82380465 28.68284836 -15.10267034 27.03895306 -13 25 C-12.46375 24.2575 -11.9275 23.515 -11.375 22.75 C-10.92125 22.1725 -10.4675 21.595 -10 21 C-9.34 21 -8.68 21 -8 21 C-7.87625 20.2575 -7.7525 19.515 -7.625 18.75 C-7.04513299 16.19858515 -6.26291261 14.2732427 -5 12 C-4.34 12 -3.68 12 -3 12 C-2.86722656 11.21753906 -2.73445313 10.43507813 -2.59765625 9.62890625 C-2.42105469 8.61699219 -2.24445313 7.60507812 -2.0625 6.5625 C-1.80146484 5.04849609 -1.80146484 5.04849609 -1.53515625 3.50390625 C-1 1 -1 1 0 0 Z " fill="#46ad4b" transform="translate(414,333)"/>
<path d="M0 0 C0.66 0 1.32 0 2 0 C2.02465098 4.96622349 2.04283649 9.93241166 2.05493164 14.89868164 C2.0599719 16.58944316 2.06680405 18.28020029 2.07543945 19.97094727 C2.08751857 22.39600707 2.09323123 24.82100944 2.09765625 27.24609375 C2.10281754 28.00651474 2.10797882 28.76693573 2.11329651 29.55039978 C2.11349238 31.3673257 2.06197277 33.18413127 2 35 C1 36 1 36 -1.43605042 36.12025452 C-2.51748825 36.11803391 -3.59892609 36.11581329 -4.71313477 36.11352539 C-5.95148071 36.11340454 -7.18982666 36.11328369 -8.46569824 36.11315918 C-9.77768188 36.10804321 -11.08966553 36.10292725 -12.44140625 36.09765625 C-13.63954956 36.09664917 -14.83769287 36.09564209 -16.07214355 36.09460449 C-20.5689387 36.08935305 -25.06572026 36.07539195 -29.5625 36.0625 C-39.606875 36.041875 -49.65125 36.02125 -60 36 C-60 71.64 -60 107.28 -60 144 C-60.33 144 -60.66 144 -61 144 C-61 108.03 -61 72.06 -61 35 C-41.2 34.67 -21.4 34.34 -1 34 C-0.67 22.78 -0.34 11.56 0 0 Z " fill="white" transform="translate(486,183)"/>
<path d="M0 0 C0.33 0 0.66 0 1 0 C1.33 36.96 1.66 73.92 2 112 C1.01 112 0.02 112 -1 112 C-1.33 78.01 -1.66 44.02 -2 9 C-2.66 9 -3.32 9 -4 9 C-3.47181039 5.19703482 -2.56226812 2.88255163 0 0 Z " fill="white" transform="translate(253,211)"/>
<path d="M0 0 C6.68266803 -0.23447958 11.81148227 0.8808774 18.171875 3.11328125 C43.91462662 11.74103753 72.07265323 12.85925031 99 13 C98.67 13.66 98.34 14.32 98 15 C93.03377651 15.02465098 88.06758834 15.04283649 83.10131836 15.05493164 C81.41055684 15.0599719 79.71979971 15.06680405 78.02905273 15.07543945 C75.60399293 15.08751857 73.17899056 15.09323123 70.75390625 15.09765625 C69.61327477 15.10539818 69.61327477 15.10539818 68.44960022 15.11329651 C66.6326743 15.11349238 64.81586873 15.06197277 63 15 C62.505 14.505 62.505 14.505 62 14 C60.34168077 13.72552087 58.67377959 13.50845964 57.00390625 13.31640625 C55.96943359 13.19330078 54.93496094 13.07019531 53.86914062 12.94335938 C52.77794922 12.81767578 51.68675781 12.69199219 50.5625 12.5625 C40.79783737 11.43649558 31.3150599 10.24516191 22 7 C19.9013863 6.49706999 17.79683778 6.01836421 15.6875 5.5625 C10.30926339 4.3536303 5.19087749 2.84760046 0 1 C0 0.67 0 0.34 0 0 Z " fill="#46ad4b" transform="translate(241,402)"/>
<path d="M0 0 C1.89442933 0.40249915 3.79036462 0.79795487 5.6875 1.1875 C15.74835419 3.65997136 25.62207402 8.93802637 34 15 C34.495 15.99 34.495 15.99 35 17 C29.25 15.125 29.25 15.125 27 14 C27 13.34 27 12.68 27 12 C26.01 11.8453125 26.01 11.8453125 25 11.6875 C21.16158991 10.80786436 17.66903309 9.43030104 14 8 C14 7.34 14 6.68 14 6 C13.38253906 5.87882813 12.76507813 5.75765625 12.12890625 5.6328125 C7.72609271 4.76163174 3.32650525 3.87598505 -1.0625 2.9375 C-1.79597656 2.78152344 -2.52945313 2.62554687 -3.28515625 2.46484375 C-5 2 -5 2 -6 1 C-11.20194345 0.04809798 -16.23599572 -0.15325047 -21.5 -0.125 C-22.22058594 -0.12886719 -22.94117188 -0.13273438 -23.68359375 -0.13671875 C-31.41140162 -0.12274441 -37.70868642 1.07999854 -44.765625 4.2578125 C-47 5 -47 5 -50 4 C-40.30035201 -8.00417428 -12.50989497 -4.27654556 0 0 Z " fill="#46ad4b" transform="translate(236,135)"/>
<path d="M0 0 C0 0.33 0 0.66 0 1 C-1.66682531 0.8559912 -3.33345185 0.70968156 -5 0.5625 C-6.3921875 0.44068359 -6.3921875 0.44068359 -7.8125 0.31640625 C-10.05992076 0.09331669 -12.30140621 -0.19413242 -14.53515625 -0.52734375 C-20.47977172 -1.28224918 -26.45536203 -1.14460286 -32.4375 -1.125 C-34.2019043 -1.13080078 -34.2019043 -1.13080078 -36.00195312 -1.13671875 C-48.11309371 -1.43103815 -48.11309371 -1.43103815 -59.5625 1.875 C-65.60083571 4.76793087 -71.30183912 7.16272989 -78 8 C-77.34 7.34 -76.68 6.68 -76 6 C-75.01 6 -74.02 6 -73 6 C-73 5.34 -73 4.68 -73 4 C-71.58774074 3.32404685 -70.16997095 2.65959941 -68.75 2 C-67.56664062 1.443125 -67.56664062 1.443125 -66.359375 0.875 C-64 0 -64 0 -60 0 C-60 -0.66 -60 -1.32 -60 -2 C-40.75471188 -6.29992338 -18.73839267 -7.06220829 0 0 Z " fill="white" transform="translate(226,97)"/>
<path d="M0 0 C1.70833008 0.0009668 1.70833008 0.0009668 3.45117188 0.00195312 C11.79679528 0.04679528 11.79679528 0.04679528 12.9375 1.1875 C15.5812187 1.65544119 18.2228307 2.08604522 20.875 2.5 C27.6341246 3.60938962 33.73386441 5.18475747 39.9375 8.1875 C39.9375 8.5175 39.9375 8.8475 39.9375 9.1875 C35.5224379 9.35731008 32.81008955 9.20214196 28.9375 7.1875 C26.75086688 6.58544423 24.55810831 6.14837645 22.3359375 5.6953125 C20.85170383 5.38106107 19.37430567 5.02876183 17.9140625 4.6171875 C3.01262791 0.56354054 -12.48723297 4.1329058 -27.31640625 6.72998047 C-30.88960362 7.32530158 -34.46381191 7.77659211 -38.0625 8.1875 C-37.0725 7.8575 -36.0825 7.5275 -35.0625 7.1875 C-35.0625 6.5275 -35.0625 5.8675 -35.0625 5.1875 C-33.27166094 4.72594354 -31.4797701 4.26846796 -29.6875 3.8125 C-28.68976563 3.55726562 -27.69203125 3.30203125 -26.6640625 3.0390625 C-25.47554687 2.75804688 -24.28703125 2.47703125 -23.0625 2.1875 C-22.34102783 2.00888428 -21.61955566 1.83026855 -20.8762207 1.64624023 C-13.88788258 0.05640569 -7.14560637 -0.07925658 0 0 Z " fill="#46ad4b" transform="translate(223.0625,106.8125)"/>
<path d="M0 0 C0.99 0.33 1.98 0.66 3 1 C2.814375 1.5775 2.62875 2.155 2.4375 2.75 C1.95627217 5.22488597 2.32212267 6.60985476 3 9 C1.27255984 9.65043719 -0.4570369 10.29514844 -2.1875 10.9375 C-3.15042969 11.29714844 -4.11335938 11.65679687 -5.10546875 12.02734375 C-9.41618033 13.47588246 -13.27019019 14.13029567 -17.8125 14.0625 C-18.60269531 14.05347656 -19.39289063 14.04445313 -20.20703125 14.03515625 C-20.79871094 14.02355469 -21.39039063 14.01195312 -22 14 C-22 13.34 -22 12.68 -22 12 C-21.030625 11.71125 -20.06125 11.4225 -19.0625 11.125 C-15.89335797 10.35785318 -15.89335797 10.35785318 -15 8 C-11.70854057 6.64311264 -8.36369637 5.492886 -5.00390625 4.31640625 C-1.75281351 3.2136114 -1.75281351 3.2136114 0 0 Z " fill="#46ad4b" transform="translate(368,365)"/>
<path d="M0 0 C0.33 0 0.66 0 1 0 C1 35.97 1 71.94 1 109 C0.67 109 0.34 109 0 109 C-0.33 75.01 -0.66 41.02 -1 6 C-1.66 6 -2.32 6 -3 6 C-2.67 4.68 -2.34 3.36 -2 2 C-1.34 2 -0.68 2 0 2 C0 1.34 0 0.68 0 0 Z " fill="white" transform="translate(252,214)"/>
<path d="M0 0 C0.33 0.66 0.66 1.32 1 2 C0.14563659 3.59741891 -0.78679451 5.15325125 -1.75 6.6875 C-5.66755209 13.53866087 -6.81136813 20.27389284 -8 28 C-8.66 28 -9.32 28 -10 28 C-10 36.91 -10 45.82 -10 55 C-10.66 55 -11.32 55 -12 55 C-12 45.76 -12 36.52 -12 27 C-11.34 27 -10.68 27 -10 27 C-9.95101562 26.27554688 -9.90203125 25.55109375 -9.8515625 24.8046875 C-9.44793848 19.58541133 -8.98724193 14.90186342 -7 10 C-6.34 10 -5.68 10 -5 10 C-4.80664062 9.36191406 -4.61328125 8.72382813 -4.4140625 8.06640625 C-4.15367187 7.24011719 -3.89328125 6.41382813 -3.625 5.5625 C-3.36976563 4.73878906 -3.11453125 3.91507813 -2.8515625 3.06640625 C-2 1 -2 1 0 0 Z " fill="white" transform="translate(156,128)"/>
<path d="M0 0 C7.75 0.75 7.75 0.75 10 3 C10 3.99 10 4.98 10 6 C9.25540527 5.98952637 8.51081055 5.97905273 7.74365234 5.96826172 C-10.4062242 5.5785641 -10.4062242 5.5785641 -28.3984375 7.5625 C-30.9842256 7.99734725 -33.38349185 8.0761166 -36 8 C-36 7.34 -36 6.68 -36 6 C-34.52196796 5.68217683 -33.04248288 5.37111135 -31.5625 5.0625 C-30.73878906 4.88847656 -29.91507813 4.71445313 -29.06640625 4.53515625 C-21.50031517 3.21470469 -14.1099632 2.8643217 -6.4375 2.9375 C-5.52419922 2.94201172 -4.61089844 2.94652344 -3.66992188 2.95117188 C-1.44654262 2.9628126 0.77669121 2.97916149 3 3 C3 2.34 3 1.68 3 1 C2.01 0.67 1.02 0.34 0 0 Z " fill="white" transform="translate(227,98)"/>
<path d="M0 0 C2 1 2 1 2.59423828 2.77832031 C2.75134277 3.53725586 2.90844727 4.29619141 3.0703125 5.078125 C3.33134766 6.32529297 3.33134766 6.32529297 3.59765625 7.59765625 C3.77167969 8.47292969 3.94570312 9.34820312 4.125 10.25 C4.30675781 11.10980469 4.48851563 11.96960938 4.67578125 12.85546875 C5.51467801 16.94903264 6.26050214 20.79723209 6 25 C6.66 25 7.32 25 8 25 C8.67126129 27.4363189 9.33716354 29.87388883 10 32.3125 C10.19078125 33.00279297 10.3815625 33.69308594 10.578125 34.40429688 C11.37716184 37.35787949 12 39.92559219 12 43 C12.66 43 13.32 43 14 43 C14.66 45.97 15.32 48.94 16 52 C15.34 52 14.68 52 14 52 C12.65605627 48.6708399 11.32672958 45.33605192 10 42 C9.72671875 41.33226562 9.4534375 40.66453125 9.171875 39.9765625 C7.2118285 35.03474314 5.94678134 30.00787661 4.74609375 24.83203125 C4.06729088 22.01393229 4.06729088 22.01393229 2.98046875 19.4765625 C0.58259991 13.41979419 -0.35062929 6.48664188 0 0 Z " fill="#46ad4b" transform="translate(111,188)"/>
<path d="M0 0 C5 2 5 2 10 4 C10 4.66 10 5.32 10 6 C10.87269531 6.27199219 11.74539062 6.54398437 12.64453125 6.82421875 C15.83386539 7.9417852 18.68903796 9.26213559 21.6875 10.8125 C33.04678235 16.61513521 33.04678235 16.61513521 45 21 C45 21.66 45 22.32 45 23 C47.31 23.33 49.62 23.66 52 24 C45.2830167 26.21886864 38.29446034 21.76551002 32.21875 18.984375 C28.86735457 17.49748829 25.44500087 16.25272759 22 15 C22 14.34 22 13.68 22 13 C21.37351563 12.79503906 20.74703125 12.59007812 20.1015625 12.37890625 C19.28429687 12.10949219 18.46703125 11.84007812 17.625 11.5625 C16.81289062 11.29566406 16.00078125 11.02882813 15.1640625 10.75390625 C13 10 13 10 11 9 C11 8.34 11 7.68 11 7 C10.37351563 6.82984375 9.74703125 6.6596875 9.1015625 6.484375 C8.28429687 6.24203125 7.46703125 5.9996875 6.625 5.75 C5.81289062 5.51796875 5.00078125 5.2859375 4.1640625 5.046875 C1.54214546 3.7785108 1.00617682 2.67576692 0 0 Z " fill="#46ad4b" transform="translate(214,348)"/>
<path d="M0 0 C0.99 0.33 1.98 0.66 3 1 C1.75945552 2.01170618 0.5071298 3.00897797 -0.75 4 C-1.44609375 4.556875 -2.1421875 5.11375 -2.859375 5.6875 C-5 7 -5 7 -9 7 C-9.33 7.99 -9.66 8.98 -10 10 C-11.98 10.33 -13.96 10.66 -16 11 C-16 11.66 -16 12.32 -16 13 C-7.96649594 11.98987005 -0.21858228 10.71328939 7.57421875 8.48828125 C10 8 10 8 13 9 C12.34 9 11.68 9 11 9 C11 9.66 11 10.32 11 11 C0.93298194 13.5010248 -8.66885307 14.61090486 -19 15 C-19 13.68 -19 12.36 -19 11 C-17.58671871 10.18162558 -16.16921654 9.37053781 -14.75 8.5625 C-13.96109375 8.11003906 -13.1721875 7.65757812 -12.359375 7.19140625 C-10 6 -10 6 -7.765625 5.46484375 C-7.18296875 5.31144531 -6.6003125 5.15804688 -6 5 C-5.67 4.34 -5.34 3.68 -5 3 C-2.625 1.3125 -2.625 1.3125 0 0 Z " fill="#46ad4b" transform="translate(362,366)"/>
<path d="M0 0 C8.25 0 16.5 0 25 0 C25 2.31 25 4.62 25 7 C24.67 7 24.34 7 24 7 C24 5.35 24 3.7 24 2 C13.11 2.495 13.11 2.495 2 3 C1.34 5.97 0.68 8.94 0 12 C-0.66 12 -1.32 12 -2 12 C-2.33 14.31 -2.66 16.62 -3 19 C-3.99 19.33 -4.98 19.66 -6 20 C-5.5247412 18.35303396 -5.04468109 16.70745272 -4.5625 15.0625 C-4.29566406 14.14597656 -4.02882813 13.22945313 -3.75390625 12.28515625 C-3 10 -3 10 -2 9 C-1.34 6.03 -0.68 3.06 0 0 Z " fill="#46ad4b" transform="translate(384,331)"/>
<path d="M0 0 C11.01203902 -0.06669472 21.99476278 0.12251834 33 0.5 C34.46874213 0.5484165 35.93749214 0.59659444 37.40625 0.64453125 C40.93759455 0.76028969 44.46882353 0.87921012 48 1 C47.67 1.66 47.34 2.32 47 3 C42.03377651 3.02465098 37.06758834 3.04283649 32.10131836 3.05493164 C30.41055684 3.0599719 28.71979971 3.06680405 27.02905273 3.07543945 C24.60399293 3.08751857 22.17899056 3.09323123 19.75390625 3.09765625 C18.61327477 3.10539818 18.61327477 3.10539818 17.44960022 3.11329651 C15.6326743 3.11349238 13.81586873 3.06197277 12 3 C11.67 2.67 11.34 2.34 11 2 C9.15108054 1.76636119 7.29511969 1.58696365 5.4375 1.4375 C4.42558594 1.35371094 3.41367187 1.26992188 2.37109375 1.18359375 C1.19740234 1.09271484 1.19740234 1.09271484 0 1 C0 0.67 0 0.34 0 0 Z " fill="#46ad4b" transform="translate(292,414)"/>
<path d="M0 0 C3.77729969 1.51091988 5.68679972 3.71276362 8.1875 6.875 C9.22970703 8.17050781 9.22970703 8.17050781 10.29296875 9.4921875 C11.85244234 11.78322193 12.5789823 13.29794608 13 16 C12.21625 15.95875 11.4325 15.9175 10.625 15.875 C7.83883881 15.71271266 7.83883881 15.71271266 6 18 C3.875 17.625 3.875 17.625 2 17 C2 14 2 14 3.25 11.1875 C4.41595651 7.8640039 4.41595651 7.8640039 2.125 4.75 C1.42375 3.8425 0.7225 2.935 0 2 C0 1.34 0 0.68 0 0 Z " fill="#46ad4b" transform="translate(327,156)"/>
<path d="M0 0 C0.66 0 1.32 0 2 0 C1.67 1.65 1.34 3.3 1 5 C-4.21440513 5.07412765 -9.42850393 5.12859104 -14.64331055 5.16479492 C-16.41745343 5.17988641 -18.19155898 5.20036191 -19.96557617 5.22631836 C-22.51490487 5.26268641 -25.06374059 5.27972238 -27.61328125 5.29296875 C-28.40712723 5.30845261 -29.20097321 5.32393646 -30.01887512 5.33988953 C-35.54461451 5.34158031 -35.54461451 5.34158031 -38.02416992 3.48168945 C-38.34619385 2.99273193 -38.66821777 2.50377441 -39 2 C-35.27498482 2 -31.55519407 2.11325444 -27.83203125 2.21875 C-26.63981209 2.25204407 -26.63981209 2.25204407 -25.42350769 2.28601074 C-22.886494 2.35694957 -20.34949702 2.42846768 -17.8125 2.5 C-16.09179794 2.54821525 -14.37109483 2.59639279 -12.65039062 2.64453125 C-8.43358136 2.76258334 -4.21678699 2.88115494 0 3 C0 2.01 0 1.02 0 0 Z " fill="#46ad4b" transform="translate(341,173)"/>
<path d="M0 0 C1.20366014 3.55164506 0.78351212 6.15460047 0.125 9.8125 C-1.49594497 20.140548 -1.66825581 30.56489212 -2 41 C-2.99 41.495 -2.99 41.495 -4 42 C-4.05906707 38.08339894 -4.09394858 34.16691543 -4.125 30.25 C-4.14175781 29.15816406 -4.15851563 28.06632812 -4.17578125 26.94140625 C-4.2306642 17.66618693 -3.71073184 8.60578125 0 0 Z " fill="white" transform="translate(119,143)"/>
<path d="M0 0 C0.99 0.33 1.98 0.66 3 1 C3.22084624 7.09781001 3.01167675 12.21642935 1 18 C0.67 18 0.34 18 0 18 C0 15.36 0 12.72 0 10 C-0.66 10 -1.32 10 -2 10 C-2.103125 10.70125 -2.20625 11.4025 -2.3125 12.125 C-3.09359003 15.39137647 -4.42058743 18.0471852 -6 21 C-6.66 21 -7.32 21 -8 21 C-7.44271087 17.65626525 -6.64826111 14.96687001 -5 12 C-4.34 12 -3.68 12 -3 12 C-2.80083984 10.82630859 -2.80083984 10.82630859 -2.59765625 9.62890625 C-2.42105469 8.61699219 -2.24445313 7.60507812 -2.0625 6.5625 C-1.88847656 5.55316406 -1.71445312 4.54382813 -1.53515625 3.50390625 C-1 1 -1 1 0 0 Z " fill="#46ad4b" transform="translate(414,333)"/>
<path d="M0 0 C0.66 0 1.32 0 2 0 C1.34 1.98 0.68 3.96 0 6 C-0.66 6 -1.32 6 -2 6 C-2.1134375 6.65484375 -2.226875 7.3096875 -2.34375 7.984375 C-3.01411804 11.06487577 -3.88764803 14.01938402 -4.81567383 17.02954102 C-6.87205552 23.70196039 -8.61753311 29.98810702 -9 37 C-8.34 37 -7.68 37 -7 37 C-7 37.66 -7 38.32 -7 39 C-7.99 39 -8.98 39 -10 39 C-10.82368854 25.63794146 -8.94321968 10.62965539 0 0 Z " fill="#46ad4b" transform="translate(163,131)"/>
<path d="M0 0 C-0.265625 1.90234375 -0.265625 1.90234375 -1 4 C-2.671875 4.94140625 -2.671875 4.94140625 -4.75 5.5625 C-7.25047461 6.3783515 -9.08796599 7.05705902 -11.3125 8.5 C-17.63719221 12.03006077 -24.80883468 13.47941102 -32 13 C-32 12.67 -32 12.34 -32 12 C-31.11957031 11.73445313 -30.23914063 11.46890625 -29.33203125 11.1953125 C-27.58986328 10.66550781 -27.58986328 10.66550781 -25.8125 10.125 C-24.08966797 9.60292969 -24.08966797 9.60292969 -22.33203125 9.0703125 C-19.07605389 8.07929189 -19.07605389 8.07929189 -16.32421875 6.8671875 C-14 6 -14 6 -10 6 C-10 5.34 -10 4.68 -10 4 C-8.71086513 3.32845067 -7.41859796 2.66291141 -6.125 2 C-5.40570313 1.62875 -4.68640625 1.2575 -3.9453125 0.875 C-2 0 -2 0 0 0 Z " fill="#46ad4b" transform="translate(388,371)"/>
<path d="M0 0 C0.33 0.66 0.66 1.32 1 2 C1.66 2 2.32 2 3 2 C5.04169485 4.90548882 6 6.40142046 6 10 C6.99 10.33 7.98 10.66 9 11 C12 15.33333333 12 15.33333333 12 18 C12.99 18.33 13.98 18.66 15 19 C17.33544279 22.18469471 19.34482973 25.41379775 21 29 C17.40690966 27.80230322 16.57906747 26.5323211 14.3125 23.5625 C13.68988281 22.75941406 13.06726563 21.95632813 12.42578125 21.12890625 C11 19 11 19 11 17 C10.34 17 9.68 17 9 17 C7 14 7 14 7 11 C6.360625 10.773125 5.72125 10.54625 5.0625 10.3125 C3 9 3 9 2.25 6.375 C2.1675 5.59125 2.085 4.8075 2 4 C1.34 4 0.68 4 0 4 C0 2.68 0 1.36 0 0 Z " fill="#46ad4b" transform="translate(145,276)"/>
<path d="M0 0 C0 0.33 0 0.66 0 1 C-3.99963002 1.64813824 -7.99976736 2.2930924 -12 2.9375 C-13.12535156 3.11990234 -14.25070313 3.30230469 -15.41015625 3.49023438 C-21.26474073 4.43176112 -27.10979193 5.31425274 -33 6 C-32.01 5.67 -31.02 5.34 -30 5 C-30 4.34 -30 3.68 -30 3 C-19.93061665 -0.31697334 -10.45861049 -0.31375831 0 0 Z " fill="#46ad4b" transform="translate(218,109)"/>
<path d="M0 0 C-0.639375 0.226875 -1.27875 0.45375 -1.9375 0.6875 C-4.27193661 1.85250896 -4.27193661 1.85250896 -4.75 4.625 C-4.8325 5.40875 -4.915 6.1925 -5 7 C-5.58007812 7.15855469 -6.16015625 7.31710938 -6.7578125 7.48046875 C-12.27558687 9.12851687 -15.82153753 11.03581766 -20 15 C-18.60807296 11.86989542 -16.97357774 9.67663308 -14.5625 7.25 C-13.66724609 6.32960938 -13.66724609 6.32960938 -12.75390625 5.390625 C-11 4 -11 4 -8 4 C-7.67 3.01 -7.34 2.02 -7 1 C-2.55696203 -1.27848101 -2.55696203 -1.27848101 0 0 Z " fill="#46ad4b" transform="translate(185,116)"/>
<path d="M0 0 C0 0.99 0 1.98 0 3 C-0.99 3.33 -1.98 3.66 -3 4 C-3.433125 5.11375 -3.433125 5.11375 -3.875 6.25 C-5.29182647 9.71335358 -7.17105034 11.58504298 -10 14 C-10.99 14 -11.98 14 -13 14 C-13.33 15.32 -13.66 16.64 -14 18 C-14.99 18 -15.98 18 -17 18 C-15.62694425 13.506363 -13.72179536 11.76970817 -10 9 C-9.175 8.175 -8.35 7.35 -7.5 6.5 C-5.12324655 4.12324655 -2.65880668 2.05107944 0 0 Z " fill="white" transform="translate(147,105)"/>
<path d="M0 0 C0.66 0 1.32 0 2 0 C0.52246473 4.93631102 -1.05638509 9.46479735 -3.75 13.89453125 C-5.50968353 16.8584982 -7.12375488 19.89911841 -8.75 22.9375 C-9.36359375 24.08089844 -9.9771875 25.22429687 -10.609375 26.40234375 C-11.29773438 27.68818359 -11.29773438 27.68818359 -12 29 C-12.66 29 -13.32 29 -14 29 C-13.01 25.535 -13.01 25.535 -12 22 C-11.34 22 -10.68 22 -10 22 C-9.79503906 21.37351562 -9.59007812 20.74703125 -9.37890625 20.1015625 C-9.10949219 19.28429687 -8.84007812 18.46703125 -8.5625 17.625 C-8.16224609 16.40683594 -8.16224609 16.40683594 -7.75390625 15.1640625 C-7 13 -7 13 -6 11 C-5.34 11 -4.68 11 -4 11 C-3.79503906 10.37351562 -3.59007812 9.74703125 -3.37890625 9.1015625 C-3.10949219 8.28429687 -2.84007812 7.46703125 -2.5625 6.625 C-2.29566406 5.81289063 -2.02882812 5.00078125 -1.75390625 4.1640625 C-1 2 -1 2 0 0 Z " fill="white" transform="translate(223,265)"/>
<path d="M0 0 C-3.66234189 3.37244675 -7.59304246 4.13918488 -12.3125 5.1875 C-13.04662109 5.36474609 -13.78074219 5.54199219 -14.53710938 5.72460938 C-19.13348788 6.78091996 -23.28670166 7.18056229 -28 7 C-27.67 6.34 -27.34 5.68 -27 5 C-24.57373531 4.40822812 -22.20634549 3.92095563 -19.75 3.5 C-12.86988939 2.29366076 -7.03093245 -0.27572284 0 0 Z " fill="#46ad4b" transform="translate(369,408)"/>
<path d="M0 0 C0.66 0 1.32 0 2 0 C1.4171836 5.07452212 -0.95843868 9.0364524 -3.375 13.4375 C-4.1750684 14.91504567 -4.97455843 16.39290469 -5.7734375 17.87109375 C-6.15338867 18.57089355 -6.53333984 19.27069336 -6.92480469 19.99169922 C-8.33927521 22.63371432 -9.67864563 25.31040448 -11 28 C-11.33 28 -11.66 28 -12 28 C-12 25.36 -12 22.72 -12 20 C-11.34 20 -10.68 20 -10 20 C-9.34 18.68 -8.68 17.36 -8 16 C-7.34 16 -6.68 16 -6 16 C-6 14.35 -6 12.7 -6 11 C-5.34 11 -4.68 11 -4 11 C-3.34 8.69 -2.68 6.38 -2 4 C-1.34 4 -0.68 4 0 4 C0 2.68 0 1.36 0 0 Z " fill="white" transform="translate(241,231)"/>
<path d="M0 0 C6.26563396 0.87534592 11.64737193 1.97473336 17.20703125 5.046875 C19.69946402 6.37182837 22.30329052 7.19098715 25 8 C25 8.66 25 9.32 25 10 C21.53058454 9.54177532 18.32604951 9.10868317 15 8 C15 7.34 15 6.68 15 6 C14.41992188 5.89042969 13.83984375 5.78085937 13.2421875 5.66796875 C8.40253723 4.6856635 4.34633884 3.45178089 0 1 C0 0.67 0 0.34 0 0 Z " fill="#46ad4b" transform="translate(216,392)"/>
<path d="M0 0 C0 3 0 3 -1.375 4.6875 C-3 6 -3 6 -5 6 C-5 6.66 -5 7.32 -5 8 C-5.59167969 8.32613281 -6.18335938 8.65226562 -6.79296875 8.98828125 C-7.58316406 9.42527344 -8.37335938 9.86226563 -9.1875 10.3125 C-10.00863281 10.76496094 -10.82976562 11.21742188 -11.67578125 11.68359375 C-13.4452041 12.68577106 -15.17169942 13.76415179 -16.875 14.875 C-17.57625 15.24625 -18.2775 15.6175 -19 16 C-19.99 15.67 -20.98 15.34 -22 15 C-21.0821875 14.41992188 -20.164375 13.83984375 -19.21875 13.2421875 C-12.62049034 9.04974929 -6.17047185 4.81296804 0 0 Z " fill="#46ad4b" transform="translate(391,392)"/>
<path d="M0 0 C0.33 0 0.66 0 1 0 C1.33 2.64 1.66 5.28 2 8 C2.268125 7.360625 2.53625 6.72125 2.8125 6.0625 C4 4 4 4 7 3 C6.34938905 4.67299959 5.67966676 6.33859237 5 8 C4.5978125 9.11375 4.5978125 9.11375 4.1875 10.25 C3 12 3 12 0.375 12.75 C-0.40875 12.8325 -1.1925 12.915 -2 13 C-2.05447047 11.58376784 -2.09300508 10.16691809 -2.125 8.75 C-2.14820313 7.96109375 -2.17140625 7.1721875 -2.1953125 6.359375 C-1.9828378 3.79268059 -1.28654105 2.2083933 0 0 Z " fill="#46ad4b" transform="translate(156,155)"/>
<path d="M0 0 C-0.8125 1.9375 -0.8125 1.9375 -2 4 C-2.99 4.33 -3.98 4.66 -5 5 C-5.309375 5.639375 -5.61875 6.27875 -5.9375 6.9375 C-7.2342338 9.45468915 -8.4221737 9.96886948 -11 11 C-10.40298507 3.71641791 -10.40298507 3.71641791 -8.875 1 C-5.95813337 -0.5556622 -3.23371783 -0.18304063 0 0 Z " fill="#46ad4b" transform="translate(174,147)"/>
<path d="M0 0 C4.455 0.99 4.455 0.99 9 2 C9 2.66 9 3.32 9 4 C9.60328125 4.09796875 10.2065625 4.1959375 10.828125 4.296875 C15.70578282 5.20946904 18.83823388 5.87595723 22 10 C16.88634986 8.9318153 11.92772031 7.76892524 7 6 C7 5.34 7 4.68 7 4 C5.35 3.67 3.7 3.34 2 3 C2 2.34 2 1.68 2 1 C1.34 0.67 0.68 0.34 0 0 Z " fill="#46ad4b" transform="translate(263,116)"/>
<path d="M0 0 C7.40650571 0.74065057 14.83486497 1.96809604 22 4 C22.33 4.66 22.66 5.32 23 6 C7.51713648 5.30602312 7.51713648 5.30602312 1 2 C0.67 1.34 0.34 0.68 0 0 Z " fill="#46ad4b" transform="translate(276,377)"/>
<path d="M0 0 C-1.485 2.475 -1.485 2.475 -3 5 C-2.01 5.33 -1.02 5.66 0 6 C-4.67201205 7.20568053 -9.21496292 7.09382426 -14 7 C-14 6.34 -14 5.68 -14 5 C-13.030625 4.71125 -12.06125 4.4225 -11.0625 4.125 C-7.89335797 3.35785318 -7.89335797 3.35785318 -7 1 C-2.44155844 -1.22077922 -2.44155844 -1.22077922 0 0 Z " fill="#46ad4b" transform="translate(360,372)"/>
<path d="M0 0 C0.98875764 3.09899205 1.13666571 3.70714491 -0.3125 6.8125 C-0.869375 7.864375 -1.42625 8.91625 -2 10 C-2.77353177 12.31593547 -3.38499059 14.63457919 -4 17 C-4.99 17 -5.98 17 -7 17 C-7 17.66 -7 18.32 -7 19 C-7.66 19 -8.32 19 -9 19 C-7.6077541 14.37324343 -5.70479016 10.35313769 -3.375 6.125 C-2.74335938 4.97257813 -2.11171875 3.82015625 -1.4609375 2.6328125 C-0.97882813 1.76398438 -0.49671875 0.89515625 0 0 Z " fill="white" transform="translate(216,185)"/>
<path d="M0 0 C3.09299215 0.42640015 6.06002503 0.9294361 9 2 C10.1875 4.5 10.1875 4.5 11 7 C14.02982306 8.37189827 14.02982306 8.37189827 17 9 C17 9.66 17 10.32 17 11 C12.91926294 10.34344577 9.70012441 8.20461021 6.25 6.0625 C5.64800781 5.70220703 5.04601562 5.34191406 4.42578125 4.97070312 C2.91274606 4.03920867 1.45105131 3.02538164 0 2 C0 1.34 0 0.68 0 0 Z " fill="#46ad4b" transform="translate(176,369)"/>
<path d="M0 0 C3.14737182 0.69941596 6.02588876 1.76078698 9 3 C9 3.66 9 4.32 9 5 C9.53625 5.103125 10.0725 5.20625 10.625 5.3125 C13.6711608 6.19428339 16.25527994 7.41416174 19 9 C19.33 9.99 19.66 10.98 20 12 C15.76570244 10.68938409 11.92592596 9.05643741 8 7 C8 6.34 8 5.68 8 5 C5.34771188 3.92474806 2.71631546 2.90543849 0 2 C0 1.34 0 0.68 0 0 Z " fill="#46ad4b" transform="translate(285,126)"/>
<path d="M0 0 C0.66 0 1.32 0 2 0 C2.50400451 2.91602609 3.00334666 5.83272092 3.5 8.75 C3.64308594 9.575 3.78617188 10.4 3.93359375 11.25 C4.06894531 12.04921875 4.20429688 12.8484375 4.34375 13.671875 C4.46943359 14.4050293 4.59511719 15.13818359 4.72460938 15.89355469 C5 18 5 18 5 22 C4.34 22 3.68 22 3 22 C2.49133331 19.64741656 1.9929375 17.29338596 1.5 14.9375 C1.35691406 14.28072266 1.21382812 13.62394531 1.06640625 12.94726562 C0.16047545 8.56860012 -0.14031146 4.49581296 0 0 Z " fill="white" transform="translate(146,183)"/>
<path d="M0 0 C1.1446875 0.2784375 1.1446875 0.2784375 2.3125 0.5625 C5.08967375 1.22819173 5.08967375 1.22819173 8 0 C6.60344703 3.49873271 5.28739516 4.70891831 1.875 6.25 C0.78832031 6.75273437 0.78832031 6.75273437 -0.3203125 7.265625 C-1.15175781 7.62914062 -1.15175781 7.62914062 -2 8 C-2.58984375 6.140625 -2.58984375 6.140625 -3 4 C-1.5625 1.75 -1.5625 1.75 0 0 Z " fill="#46ad4b" transform="translate(389,387)"/>
<path d="M0 0 C7.26 0 14.52 0 22 0 C22 9 22 9 20 13 C19.34 13 18.68 13 18 13 C18.31049726 11.56206608 18.6234776 10.1246682 18.9375 8.6875 C19.19853516 7.48673828 19.19853516 7.48673828 19.46484375 6.26171875 C20 4 20 4 21 1 C14.07 1 7.14 1 0 1 C0 0.67 0 0.34 0 0 Z " fill="#46ad4b" transform="translate(386,333)"/>
<path d="M0 0 C0.66 0 1.32 0 2 0 C1.60140439 1.92050612 1.18034074 3.83635712 0.75 5.75 C0.51796875 6.81734375 0.2859375 7.8846875 0.046875 8.984375 C-1.10228191 12.29463296 -2.28091674 13.82894902 -5 16 C-5.66 16 -6.32 16 -7 16 C-6.28028381 12.24654344 -4.66887798 9.13908031 -2.9375 5.75 C-2.11572266 4.13351563 -2.11572266 4.13351563 -1.27734375 2.484375 C-0.64505859 1.25460938 -0.64505859 1.25460938 0 0 Z " fill="#707FAD" transform="translate(191,234)"/>
<path d="M0 0 C5.96546884 -0.38077461 10.43686102 0.93397918 16 3 C17.175625 3.391875 18.35125 3.78375 19.5625 4.1875 C20.366875 4.455625 21.17125 4.72375 22 5 C22 5.33 22 5.66 22 6 C17.57441614 6.17021476 14.88556741 5.99449277 11 4 C8.68502499 3.43113242 6.36663037 2.99844286 4.0234375 2.5625 C2 2 2 2 0 0 Z " fill="#A1D4A4" transform="translate(241,110)"/>
<path d="M0 0 C11.385 1.485 11.385 1.485 23 3 C23 3.33 23 3.66 23 4 C20.47886908 4.05447822 17.9589415 4.09389852 15.4375 4.125 C14.73302734 4.14175781 14.02855469 4.15851563 13.30273438 4.17578125 C8.48108178 4.22022044 4.57702562 3.52768004 0 2 C0 1.34 0 0.68 0 0 Z " fill="#94CC9A" transform="translate(278,410)"/>
<path d="M0 0 C-1.29364853 3.8809456 -2.90703342 4.56689295 -6.3125 6.75 C-7.27800781 7.38421875 -8.24351562 8.0184375 -9.23828125 8.671875 C-12 10 -12 10 -14.35546875 9.703125 C-14.89816406 9.47109375 -15.44085938 9.2390625 -16 9 C-13.90160347 7.49130977 -11.79700219 5.99301643 -9.6875 4.5 C-9.09259766 4.07074219 -8.49769531 3.64148438 -7.88476562 3.19921875 C-3.33984375 0 -3.33984375 0 0 0 Z " fill="#AEDAB3" transform="translate(391,364)"/>
<path d="M0 0 C0.99 0 1.98 0 3 0 C3.66 3.3 4.32 6.6 5 10 C5.66 10 6.32 10 7 10 C7.66 12.97 8.32 15.94 9 19 C8.34 19 7.68 19 7 19 C4.42383482 12.7361263 2.05764921 6.45353615 0 0 Z " fill="#46ad4b" transform="translate(118,221)"/>
<path d="M0 0 C0 0.66 0 1.32 0 2 C-3.88877867 2.91415319 -7.50909382 3.13432455 -11.5 3.125 C-12.6034375 3.12757813 -13.706875 3.13015625 -14.84375 3.1328125 C-17.68492244 3.01325821 -20.23807642 2.64925815 -23 2 C-23 1.67 -23 1.34 -23 1 C-20.29178874 0.83111377 -17.58345903 0.66482399 -14.875 0.5 C-14.11445313 0.45230469 -13.35390625 0.40460938 -12.5703125 0.35546875 C-8.3724967 0.10215228 -4.20798902 -0.05377622 0 0 Z " fill="#46ad4b" transform="translate(355,384)"/>
<path d="M0 0 C-0.556875 0.23074219 -1.11375 0.46148437 -1.6875 0.69921875 C-6.5540711 2.77902025 -10.97428277 5.09790279 -15.37109375 8.046875 C-17 9 -17 9 -19 9 C-17.69223893 5.0767168 -16.22761611 4.75668138 -12.625 2.875 C-11.64789063 2.35679688 -10.67078125 1.83859375 -9.6640625 1.3046875 C-5.92189519 -0.52798681 -3.96992544 -1.23204583 0 0 Z " fill="#46ad4b" transform="translate(187,108)"/>
<path d="M0 0 C1.05767578 0.42925781 1.05767578 0.42925781 2.13671875 0.8671875 C5.01205232 2.00476831 7.90452186 3.07392356 10.8125 4.125 C11.78832031 4.47820312 12.76414063 4.83140625 13.76953125 5.1953125 C14.87361328 5.59363281 14.87361328 5.59363281 16 6 C16 6.66 16 7.32 16 8 C18.31 8.33 20.62 8.66 23 9 C16.48578133 11.13245723 10.22949255 7.19617289 4.4375 4.3125 C2.95521999 3.54767059 1.47487846 2.77900679 0 2 C0 1.34 0 0.68 0 0 Z " fill="#46ad4b" transform="translate(243,363)"/>
<path d="M0 0 C0.33 0.99 0.66 1.98 1 3 C-0.8125 6.1875 -0.8125 6.1875 -3 9 C-3.66 9 -4.32 9 -5 9 C-5.226875 9.763125 -5.45375 10.52625 -5.6875 11.3125 C-7.26731682 14.54736301 -8.83282717 15.41641358 -12 17 C-10.63930324 14.09070073 -9.07406828 11.61244684 -7.125 9.0625 C-6.5990625 8.37285156 -6.073125 7.68320312 -5.53125 6.97265625 C-3.71167072 4.62855539 -1.87125201 2.3030794 0 0 Z " fill="#46ad4b" transform="translate(403,347)"/>
<path d="M0 0 C2.97 0.495 2.97 0.495 6 1 C6 1.99 6 2.98 6 4 C8.97 4.495 8.97 4.495 12 5 C12 5.66 12 6.32 12 7 C11.34 7 10.68 7 10 7 C10 7.99 10 8.98 10 10 C6.56870293 8.85623431 5.62153121 7.71081232 3.3125 5 C2.68988281 4.278125 2.06726563 3.55625 1.42578125 2.8125 C0 1 0 1 0 0 Z " fill="#46ad4b" transform="translate(178,311)"/>
<path d="M0 0 C0 0.33 0 0.66 0 1 C-1.423125 1.12375 -1.423125 1.12375 -2.875 1.25 C-7.16096356 1.82729305 -10.84471906 3.49218715 -14.765625 5.2578125 C-17 6 -17 6 -20 5 C-17.73131249 1.88055468 -14.93794116 1.16401651 -11.2734375 0.33984375 C-7.51292245 -0.2222951 -3.790799 -0.15794996 0 0 Z " fill="#46ad4b" transform="translate(206,134)"/>
<path d="M0 0 C2.31 0.66 4.62 1.32 7 2 C6.67 3.32 6.34 4.64 6 6 C6.99 6.66 7.98 7.32 9 8 C9.6875 10.125 9.6875 10.125 10 12 C9.01 12.495 9.01 12.495 8 13 C7.34 11.35 6.68 9.7 6 8 C5.34 8 4.68 8 4 8 C0 2.58823529 0 2.58823529 0 0 Z " fill="#46ad4b" transform="translate(153,278)"/>
<path d="M0 0 C0.33 0 0.66 0 1 0 C1 8.58 1 17.16 1 26 C0.67 26 0.34 26 0 26 C-0.33 19.4 -0.66 12.8 -1 6 C-1.66 6 -2.32 6 -3 6 C-2.67 4.68 -2.34 3.36 -2 2 C-1.34 2 -0.68 2 0 2 C0 1.34 0 0.68 0 0 Z " fill="#46ad4b" transform="translate(252,214)"/>
<path d="M0 0 C0.66 0 1.32 0 2 0 C2.13277344 0.74765625 2.26554687 1.4953125 2.40234375 2.265625 C2.57894531 3.25046875 2.75554687 4.2353125 2.9375 5.25 C3.19853516 6.71179688 3.19853516 6.71179688 3.46484375 8.203125 C3.94351731 10.92051383 3.94351731 10.92051383 4.625 13.21875 C5.14409757 15.68446346 4.27344623 16.90255914 3 19 C3 17.02 3 15.04 3 13 C2.34 13 1.68 13 1 13 C-0.10228696 8.59085217 -0.07654536 4.51617599 0 0 Z " fill="#46ad4b" transform="translate(116,189)"/>
<path d="M0 0 C0.66 0 1.32 0 2 0 C1.34 1.98 0.68 3.96 0 6 C-0.66 6 -1.32 6 -2 6 C-2.12375 6.721875 -2.2475 7.44375 -2.375 8.1875 C-2.9904931 10.95721894 -3.88444374 13.3970354 -5 16 C-5.66 16 -6.32 16 -7 16 C-6.67698799 9.86277186 -3.6043679 4.83769272 0 0 Z " fill="#46ad4b" transform="translate(163,131)"/>
<path d="M0 0 C2.97 0 5.94 0 9 0 C9 0.99 9 1.98 9 3 C9.66 3.66 10.32 4.32 11 5 C8.03 5 5.06 5 2 5 C2 4.01 2 3.02 2 2 C1.34 1.34 0.68 0.68 0 0 Z " fill="#46ad4b" transform="translate(201,96)"/>
<path d="M0 0 C0.33 0.66 0.66 1.32 1 2 C-1.51838834 7.43971882 -3.77638267 9.8658296 -9 13 C-9.33 13.66 -9.66 14.32 -10 15 C-10.66 14.67 -11.32 14.34 -12 14 C-9.21877068 10.39470274 -6.21638693 7.21638693 -3 4 C-1.97186389 2.68824014 -0.95915568 1.3630107 0 0 Z " fill="#46ad4b" transform="translate(377,351)"/>
<path d="M0 0 C0.66 0 1.32 0 2 0 C1.21681311 3.91593446 -0.39179858 7.36406635 -2 11 C-2.66 11 -3.32 11 -4 11 C-4.33 12.32 -4.66 13.64 -5 15 C-5.33 15 -5.66 15 -6 15 C-6 13.35 -6 11.7 -6 10 C-5.34 9.67 -4.68 9.34 -4 9 C-2.87293294 6.88984046 -2.87293294 6.88984046 -1.875 4.4375 C-1.34519531 3.19806641 -1.34519531 3.19806641 -0.8046875 1.93359375 C-0.53914062 1.29550781 -0.27359375 0.65742188 0 0 Z " fill="#46ad4b" transform="translate(201,306)"/>
<path d="M0 0 C3.67056937 1.47797262 5.41085783 3.47615477 7.75 6.625 C8.67039062 7.85089844 8.67039062 7.85089844 9.609375 9.1015625 C10.29773438 10.04128906 10.29773438 10.04128906 11 11 C9.68 11.33 8.36 11.66 7 12 C6.896875 11.360625 6.79375 10.72125 6.6875 10.0625 C6.460625 9.381875 6.23375 8.70125 6 8 C5.01 7.67 4.02 7.34 3 7 C0 2.66666667 0 2.66666667 0 0 Z " fill="#46ad4b" transform="translate(327,156)"/>
<path d="M0 0 C0.33 0.66 0.66 1.32 1 2 C0.34 2 -0.32 2 -1 2 C-1.33 2.99 -1.66 3.98 -2 5 C-2.66 5 -3.32 5 -4 5 C-4.268125 5.61875 -4.53625 6.2375 -4.8125 6.875 C-6 9 -6 9 -9 11 C-9.99 11 -10.98 11 -12 11 C-12 10.34 -12 9.68 -12 9 C-9.4385343 6.70351351 -8.52032428 6 -5 6 C-4.731875 5.38125 -4.46375 4.7625 -4.1875 4.125 C-3 2 -3 2 0 0 Z " fill="#46ad4b" transform="translate(400,360)"/>
<path d="M0 0 C1.32 0.33 2.64 0.66 4 1 C4.33 2.65 4.66 4.3 5 6 C5.66 6 6.32 6 7 6 C8.06775224 7.96466413 9.06553465 9.96855359 10 12 C9.67 12.66 9.34 13.32 9 14 C4.125 8.375 4.125 8.375 3 5 C2.484375 4.484375 1.96875 3.96875 1.4375 3.4375 C0.963125 2.963125 0.48875 2.48875 0 2 C0 1.34 0 0.68 0 0 Z " fill="#46ad4b" transform="translate(116,307)"/>
<path d="M0 0 C0.66 0 1.32 0 2 0 C2 0.66 2 1.32 2 2 C2.66 2 3.32 2 4 2 C4.50512244 3.60256108 5.00391627 5.20711792 5.5 6.8125 C5.7784375 7.70582031 6.056875 8.59914062 6.34375 9.51953125 C7 12 7 12 7 15 C6.34 15 5.68 15 5 15 C3.33333333 10 1.66666667 5 0 0 Z " fill="#46ad4b" transform="translate(123,221)"/>
<path d="M0 0 C0.66 0 1.32 0 2 0 C1.49287967 3.71888239 0.88391785 6.73454239 -1 10 C-1.66 10 -2.32 10 -3 10 C-3.66 11.32 -4.32 12.64 -5 14 C-4.34580901 8.93001981 -2.1453591 4.58009223 0 0 Z " fill="#46ad4b" transform="translate(407,367)"/>
<path d="M0 0 C0.99 0.495 0.99 0.495 2 1 C2 1.66 2 2.32 2 3 C2.99 3.33 3.98 3.66 5 4 C7.33544279 7.18469471 9.34482973 10.41379775 11 14 C7.44242089 12.8141403 6.62880321 11.61744417 4.375 8.6875 C3.76398438 7.90761719 3.15296875 7.12773437 2.5234375 6.32421875 C1.08730038 4.13318905 0.43301444 2.5571258 0 0 Z " fill="#46ad4b" transform="translate(155,291)"/>
<path d="M0 0 C0.66 0 1.32 0 2 0 C2.25394531 0.61488281 2.50789062 1.22976562 2.76953125 1.86328125 C3.11371094 2.67152344 3.45789063 3.47976562 3.8125 4.3125 C4.14894531 5.11300781 4.48539063 5.91351563 4.83203125 6.73828125 C5.98672534 8.97429421 7.22137304 10.26214385 9 12 C9 12.66 9 13.32 9 14 C5.23193471 12.74397824 4.78753493 11.48987433 2.8125 8.125 C2.28269531 7.24070313 1.75289062 6.35640625 1.20703125 5.4453125 C0 3 0 3 0 0 Z " fill="#46ad4b" transform="translate(163,237)"/>
<path d="M0 0 C5.94074887 1.00332648 10.20186518 2.30912706 15 6 C12 7 12 7 9.08203125 5.78515625 C7.46361328 4.93244141 7.46361328 4.93244141 5.8125 4.0625 C4.72582031 3.49660156 3.63914063 2.93070312 2.51953125 2.34765625 C1.68808594 1.90292969 0.85664063 1.45820313 0 1 C0 0.67 0 0.34 0 0 Z " fill="#46ad4b" transform="translate(201,385)"/>
<path d="M0 0 C1.01299606 2.65602626 1.07672553 3.78395707 0.109375 6.5078125 C-0.33921875 7.37148437 -0.7878125 8.23515625 -1.25 9.125 C-1.68828125 9.99382812 -2.1265625 10.86265625 -2.578125 11.7578125 C-4 14 -4 14 -7 16 C-5.60668753 10.04675579 -3.11464243 5.24258516 0 0 Z " fill="#46ad4b" transform="translate(206,204)"/>
<path d="M0 0 C0.99 0.33 1.98 0.66 3 1 C3 4.3 3 7.6 3 11 C2.01 11.495 2.01 11.495 1 12 C1 9.36 1 6.72 1 4 C0.34 4 -0.32 4 -1 4 C-0.67 2.68 -0.34 1.36 0 0 Z " fill="#46ad4b" transform="translate(414,333)"/>
<path d="M0 0 C2.954889 3.5458668 5.45934985 7.63781033 7 12 C6.67 12.99 6.34 13.98 6 15 C2.45915943 9.92479519 0 6.2675151 0 0 Z " fill="#46ad4b" transform="translate(133,253)"/>
<path d="M0 0 C1.7074998 1.28062485 3.37373596 2.61767557 5 4 C5 4.66 5 5.32 5 6 C5.99 6 6.98 6 8 6 C8.33 5.01 8.66 4.02 9 3 C9.33 3.99 9.66 4.98 10 6 C9.67 6.66 9.34 7.32 9 8 C6.23723823 7.47731534 3.6739124 6.89130413 1 6 C0.67 4.02 0.34 2.04 0 0 Z " fill="#46ad4b" transform="translate(172,251)"/>
<path d="M0 0 C-1.5588334 3.82622743 -3.95433582 6.25147379 -7 9 C-7.99 9.33 -8.98 9.66 -10 10 C-9.1875 7.5625 -9.1875 7.5625 -8 5 C-7.01 4.67 -6.02 4.34 -5 4 C-4.67 3.01 -4.34 2.02 -4 1 C-2 0 -2 0 0 0 Z " fill="#46ad4b" transform="translate(167,118)"/>
<path d="M0 0 C2.62527189 -0.05382106 5.24944713 -0.09358313 7.875 -0.125 C8.62136719 -0.14175781 9.36773437 -0.15851563 10.13671875 -0.17578125 C12.09194461 -0.1933959 14.04742021 -0.10320189 16 0 C16.66 0.66 17.32 1.32 18 2 C17 3 17 3 14.5 3.125 C12 3 12 3 11 2 C9.15108054 1.76636119 7.29511969 1.58696365 5.4375 1.4375 C4.42558594 1.35371094 3.41367187 1.26992188 2.37109375 1.18359375 C1.19740234 1.09271484 1.19740234 1.09271484 0 1 C0 0.67 0 0.34 0 0 Z " fill="#46ad4b" transform="translate(292,414)"/>
<path d="M0 0 C-0.33 0.66 -0.66 1.32 -1 2 C-3.94140625 2.4140625 -3.94140625 2.4140625 -7.5625 2.625 C-8.76003906 2.69976562 -9.95757812 2.77453125 -11.19140625 2.8515625 C-12.11824219 2.90054687 -13.04507812 2.94953125 -14 3 C-13 1 -13 1 -11.07421875 0.33203125 C-10.28660156 0.16058594 -9.49898438 -0.01085937 -8.6875 -0.1875 C-7.90761719 -0.36667969 -7.12773437 -0.54585938 -6.32421875 -0.73046875 C-3.90795241 -1.01067443 -2.29757048 -0.74132137 0 0 Z " fill="#46ad4b" transform="translate(355,412)"/>
<path d="M0 0 C1.98 0 3.96 0 6 0 C6 1.98 6 3.96 6 6 C4.02 5.34 2.04 4.68 0 4 C0 2.66666667 0 1.33333333 0 0 Z " fill="#46ad4b" transform="translate(215,387)"/>
<path d="M0 0 C0.33 0 0.66 0 1 0 C0.65697965 5.98511371 0.17692157 10.75117306 -3 16 C-4.78499513 10.64501462 -1.77248894 5.19086048 0 0 Z " fill="#46ad4b" transform="translate(413,351)"/>
<path d="M0 0 C1.06528748 2.73019786 1.07998186 3.79298812 0.00390625 6.578125 C-0.47175781 7.45984375 -0.94742188 8.3415625 -1.4375 9.25 C-1.91058594 10.14203125 -2.38367188 11.0340625 -2.87109375 11.953125 C-3.24363281 12.62859375 -3.61617187 13.3040625 -4 14 C-5.06528748 11.26980214 -5.07998186 10.20701188 -4.00390625 7.421875 C-3.52824219 6.54015625 -3.05257812 5.6584375 -2.5625 4.75 C-2.08941406 3.85796875 -1.61632812 2.9659375 -1.12890625 2.046875 C-0.75636719 1.37140625 -0.38382813 0.6959375 0 0 Z " fill="#46ad4b" transform="translate(198,220)"/>
<path d="M0 0 C-0.33 1.32 -0.66 2.64 -1 4 C-3.97 4.66 -6.94 5.32 -10 6 C-10 5.34 -10 4.68 -10 4 C-8.71086513 3.32845067 -7.41859796 2.66291141 -6.125 2 C-5.40570313 1.62875 -4.68640625 1.2575 -3.9453125 0.875 C-2 0 -2 0 0 0 Z " fill="#46ad4b" transform="translate(388,371)"/>
<path d="M0 0 C10.55808656 0.77904328 10.55808656 0.77904328 15 3 C15 3.33 15 3.66 15 4 C13.24967156 3.85816304 11.49974466 3.71136571 9.75 3.5625 C8.77546875 3.48128906 7.8009375 3.40007812 6.796875 3.31640625 C4.43538247 3.04925416 2.28098935 2.64628032 0 2 C0 1.34 0 0.68 0 0 Z " fill="#46ad4b" transform="translate(211,94)"/>
<path d="M0 0 C1.44319692 0.90767102 2.87934106 1.82656106 4.3125 2.75 C5.11300781 3.26046875 5.91351563 3.7709375 6.73828125 4.296875 C9.00368861 6.00277761 10.42684167 7.65808145 12 10 C9.0625 9.1875 9.0625 9.1875 6 8 C5.67 7.01 5.34 6.02 5 5 C4.01 5 3.02 5 2 5 C1.34 3.35 0.68 1.7 0 0 Z " fill="#46ad4b" transform="translate(196,334)"/>
<path d="M0 0 C5.78898419 -0.20674944 10.42932723 0.40837921 16 2 C16 2.66 16 3.32 16 4 C8.125 3.125 8.125 3.125 7 2 C4.67182036 1.63239269 2.3381615 1.29758419 0 1 C0 0.67 0 0.34 0 0 Z " fill="#46ad4b" transform="translate(223,134)"/>
<path d="M0 0 C-0.33 0.66 -0.66 1.32 -1 2 C-3.50390625 2.4140625 -3.50390625 2.4140625 -6.5625 2.625 C-7.57441406 2.69976562 -8.58632812 2.77453125 -9.62890625 2.8515625 C-10.41136719 2.90054688 -11.19382813 2.94953125 -12 3 C-12 2.34 -12 1.68 -12 1 C-10.37681021 0.63762737 -8.7513642 0.28534843 -7.125 -0.0625 C-6.22007812 -0.25972656 -5.31515625 -0.45695312 -4.3828125 -0.66015625 C-2 -1 -2 -1 0 0 Z " fill="#46ad4b" transform="translate(203,103)"/>
<path d="M0 0 C2.97 0.33 5.94 0.66 9 1 C9 1.66 9 2.32 9 3 C4.38 3 -0.24 3 -5 3 C-5 2.67 -5 2.34 -5 2 C-3.35 1.67 -1.7 1.34 0 1 C0 0.67 0 0.34 0 0 Z " fill="#46ad4b" transform="translate(221,98)"/>
<path d="M0 0 C0.66 0 1.32 0 2 0 C2 4.62 2 9.24 2 14 C1.67 14 1.34 14 1 14 C1 11.36 1 8.72 1 6 C0.34 6 -0.32 6 -1 6 C-1.042721 4.33388095 -1.04063832 2.66617115 -1 1 C-0.67 0.67 -0.34 0.34 0 0 Z " fill="#46ad4b" transform="translate(413,337)"/>
<path d="M0 0 C3.38361519 0.61728115 5.52002561 1.86979718 8.25 3.9375 C8.95640625 4.46214844 9.6628125 4.98679688 10.390625 5.52734375 C11.18726563 6.25630859 11.18726563 6.25630859 12 7 C12 7.66 12 8.32 12 9 C9.16661778 7.62159784 6.44311194 6.13581614 3.75 4.5 C3.04359375 4.0771875 2.3371875 3.654375 1.609375 3.21875 C1.07828125 2.8165625 0.5471875 2.414375 0 2 C0 1.34 0 0.68 0 0 Z " fill="#46ad4b" transform="translate(281,158)"/>
<path d="M0 0 C-1.42859407 1.03325986 -2.86822383 2.05127634 -4.3125 3.0625 C-5.51326172 3.91521484 -5.51326172 3.91521484 -6.73828125 4.78515625 C-7.48464844 5.18605469 -8.23101562 5.58695313 -9 6 C-9.99 5.67 -10.98 5.34 -12 5 C-8.44416617 1.04907352 -5.38741645 -1.79580548 0 0 Z " fill="#46ad4b" transform="translate(186,141)"/>
<path d="M0 0 C3.55007718 3.9050849 4.81819916 6.97734643 6 12 C3 11 3 11 1.3125 7.6875 C0 4 0 4 0 0 Z " fill="#46ad4b" transform="translate(127,241)"/>
<path d="M0 0 C2 1 2 1 3.125 4.3125 C4 8 4 8 4 12 C3.34 12 2.68 12 2 12 C0.86235649 7.73383684 0 4.43513689 0 0 Z " fill="#46ad4b" transform="translate(151,205)"/>
<path d="M0 0 C0 4.01847141 -1.22856766 5.15563523 -4 8 C-7.25 9.3125 -7.25 9.3125 -10 10 C-8.37660195 8.29115995 -6.70680947 6.62553283 -5 5 C-4.34 5 -3.68 5 -3 5 C-2.690625 4.360625 -2.38125 3.72125 -2.0625 3.0625 C-1 1 -1 1 0 0 Z " fill="#46ad4b" transform="translate(370,361)"/>
<path d="M0 0 C1.32940404 3.98821211 0.43803613 6.11730245 -1 10 C-1.99 10.33 -2.98 10.66 -4 11 C-3.5247412 9.35303396 -3.04468109 7.70745272 -2.5625 6.0625 C-2.29566406 5.14597656 -2.02882813 4.22945313 -1.75390625 3.28515625 C-1 1 -1 1 0 0 Z " fill="#46ad4b" transform="translate(382,340)"/>
<path d="M0 0 C0.66 0 1.32 0 2 0 C1.57405412 1.44096586 1.13373367 2.87768712 0.6875 4.3125 C0.44386719 5.11300781 0.20023438 5.91351563 -0.05078125 6.73828125 C-1.04182023 9.09964573 -2.08074943 10.33879993 -4 12 C-3.33501617 7.61110675 -1.81242323 4.0188515 0 0 Z " fill="#46ad4b" transform="translate(223,265)"/>
<path d="M0 0 C0.65234375 1.734375 0.65234375 1.734375 1 4 C0.00390625 6.140625 0.00390625 6.140625 -1.4375 8.25 C-1.91058594 8.95640625 -2.38367188 9.6628125 -2.87109375 10.390625 C-3.24363281 10.92171875 -3.61617187 11.4528125 -4 12 C-4.33 11.34 -4.66 10.68 -5 10 C-4.00390625 7.6171875 -4.00390625 7.6171875 -2.5625 4.875 C-1.85287109 3.50988281 -1.85287109 3.50988281 -1.12890625 2.1171875 C-0.75636719 1.41851562 -0.38382813 0.71984375 0 0 Z " fill="#46ad4b" transform="translate(216,185)"/>
<path d="M0 0 C1.48117801 0.28127421 2.95993249 0.57533732 4.4375 0.875 C5.67306641 1.11863281 5.67306641 1.11863281 6.93359375 1.3671875 C7.61550781 1.57601562 8.29742187 1.78484375 9 2 C9.33 2.66 9.66 3.32 10 4 C7.03 3.67 4.06 3.34 1 3 C0.67 2.01 0.34 1.02 0 0 Z " fill="#46ad4b" transform="translate(239,136)"/>
<path d="M0 0 C0.33 0.66 0.66 1.32 1 2 C0.00390625 4.1640625 0.00390625 4.1640625 -1.4375 6.625 C-1.91058594 7.44226563 -2.38367188 8.25953125 -2.87109375 9.1015625 C-3.24363281 9.72804687 -3.61617187 10.35453125 -4 11 C-5 8 -5 8 -3.6875 4.375 C-2 1 -2 1 0 0 Z " fill="#46ad4b" transform="translate(156,128)"/>
<path d="M0 0 C4.95 0.99 4.95 0.99 10 2 C10 2.66 10 3.32 10 4 C2.25 3.125 2.25 3.125 0 2 C0 1.34 0 0.68 0 0 Z " fill="#46ad4b" transform="translate(266,373)"/>
<path d="M0 0 C0.33 0.66 0.66 1.32 1 2 C0.22265625 4.1640625 0.22265625 4.1640625 -0.9375 6.625 C-1.31777344 7.44226563 -1.69804687 8.25953125 -2.08984375 9.1015625 C-2.39019531 9.72804688 -2.69054687 10.35453125 -3 11 C-3.66 11 -4.32 11 -5 11 C-4.39102647 7.44765442 -3.54266151 4.2668126 -2 1 C-1.34 0.67 -0.68 0.34 0 0 Z " fill="#46ad4b" transform="translate(208,295)"/>
<path d="M0 0 C0.99 0 1.98 0 3 0 C3.33 3.3 3.66 6.6 4 10 C3.34 10 2.68 10 2 10 C1.34 6.7 0.68 3.4 0 0 Z " fill="#46ad4b" transform="translate(147,195)"/>
<path d="M0 0 C2.8125 0.125 2.8125 0.125 6 1 C7.875 4.0625 7.875 4.0625 9 7 C5.18315774 5.44499019 2.80804268 2.96404505 0 0 Z " fill="#46ad4b" transform="translate(293,167)"/>
<path d="M0 0 C0.33 0.66 0.66 1.32 1 2 C-1.45614035 7 -1.45614035 7 -3 9 C-3.99 9.33 -4.98 9.66 -6 10 C-2.62068966 1.31034483 -2.62068966 1.31034483 0 0 Z " fill="#46ad4b" transform="translate(162,158)"/>
<path d="M0 0 C1.4835001 0.42257276 2.96176424 0.86356322 4.4375 1.3125 C5.67306641 1.67794922 5.67306641 1.67794922 6.93359375 2.05078125 C7.61550781 2.36402344 8.29742187 2.67726563 9 3 C9.33 3.99 9.66 4.98 10 6 C6.00452264 5.38531118 3.22493358 3.34540624 0 1 C0 0.67 0 0.34 0 0 Z " fill="#46ad4b" transform="translate(183,374)"/>
<path d="M0 0 C0.99 0.33 1.98 0.66 3 1 C3.94921875 3.06640625 3.94921875 3.06640625 4.6875 5.5625 C4.93886719 6.38878906 5.19023437 7.21507812 5.44921875 8.06640625 C5.63097656 8.70449219 5.81273437 9.34257812 6 10 C5.34 10 4.68 10 4 10 C3.32845067 8.71086513 2.66291141 7.41859796 2 6.125 C1.62875 5.40570313 1.2575 4.68640625 0.875 3.9453125 C0 2 0 2 0 0 Z " fill="#46ad4b" transform="translate(136,250)"/>
<path d="M0 0 C1 3 1 3 0.22265625 5.04296875 C-0.16019531 5.75066406 -0.54304687 6.45835937 -0.9375 7.1875 C-1.31777344 7.90292969 -1.69804687 8.61835938 -2.08984375 9.35546875 C-2.54037109 10.16951172 -2.54037109 10.16951172 -3 11 C-3.66 11 -4.32 11 -5 11 C-4.34 8.69 -3.68 6.38 -3 4 C-2.34 4 -1.68 4 -1 4 C-0.67 2.68 -0.34 1.36 0 0 Z " fill="#46ad4b" transform="translate(248,220)"/>
<path d="M0 0 C3.94120709 0.56302958 6.7508723 1.6791945 10 4 C10 4.66 10 5.32 10 6 C5.56909529 4.79157144 3.01887244 3.48331435 0 0 Z " fill="#46ad4b" transform="translate(271,152)"/>
<path d="M0 0 C0 3.61537605 -0.89229241 5.11165997 -3 8 C-3.99 8 -4.98 8 -6 8 C-4.73058503 4.08597051 -3.48832306 2.20927127 0 0 Z " fill="#46ad4b" transform="translate(136,115)"/>
<path d="M0 0 C1.98 0.495 1.98 0.495 4 1 C4.33 2.32 4.66 3.64 5 5 C3.02 5 1.04 5 -1 5 C-0.67 3.35 -0.34 1.7 0 0 Z " fill="#46ad4b" transform="translate(232,99)"/>
<path d="M0 0 C0 0.66 0 1.32 0 2 C-4.1205746 3.99785435 -7.45194365 4.17835515 -12 4 C-12 3.67 -12 3.34 -12 3 C-10.37604003 2.49663233 -8.75079459 1.99741024 -7.125 1.5 C-6.22007812 1.2215625 -5.31515625 0.943125 -4.3828125 0.65625 C-2 0 -2 0 0 0 Z " fill="#46ad4b" transform="translate(368,380)"/>
<path d="M0 0 C1.4800841 0.11362262 2.95910074 0.24122908 4.4375 0.375 C5.26121094 0.44460938 6.08492188 0.51421875 6.93359375 0.5859375 C7.95646484 0.79089844 7.95646484 0.79089844 9 1 C9.33 1.66 9.66 2.32 10 3 C3.375 3.125 3.375 3.125 0 2 C0 1.34 0 0.68 0 0 Z " fill="#46ad4b" transform="translate(289,380)"/>
<path d="M0 0 C-0.66 0 -1.32 0 -2 0 C-2 0.66 -2 1.32 -2 2 C-4.64 2.33 -7.28 2.66 -10 3 C-10 2.34 -10 1.68 -10 1 C-3.375 -1.125 -3.375 -1.125 0 0 Z " fill="#46ad4b" transform="translate(375,375)"/>
<path d="M0 0 C0.66 0 1.32 0 2 0 C2.53229326 1.26607607 3.05044544 2.53810412 3.5625 3.8125 C3.85253906 4.52019531 4.14257812 5.22789062 4.44140625 5.95703125 C5 8 5 8 4 11 C3.32591692 9.73308493 2.66099503 8.46129251 2 7.1875 C1.62875 6.47980469 1.2575 5.77210938 0.875 5.04296875 C0 3 0 3 0 0 Z " fill="#46ad4b" transform="translate(98,272)"/>
<path d="M0 0 C0.99 0.33 1.98 0.66 3 1 C3.94921875 3.06640625 3.94921875 3.06640625 4.6875 5.5625 C4.93886719 6.38878906 5.19023437 7.21507812 5.44921875 8.06640625 C5.63097656 8.70449219 5.81273437 9.34257812 6 10 C3.66475218 7.74259377 1.81294927 5.7194239 0 3 C0 2.01 0 1.02 0 0 Z " fill="#46ad4b" transform="translate(142,260)"/>
<path d="M0 0 C0.99 0 1.98 0 3 0 C3.33 2.97 3.66 5.94 4 9 C2 8 2 8 1.3671875 6.15234375 C1.20476562 5.42144531 1.04234375 4.69054687 0.875 3.9375 C0.70742187 3.20402344 0.53984375 2.47054687 0.3671875 1.71484375 C0.24601562 1.14894531 0.12484375 0.58304688 0 0 Z " fill="#46ad4b" transform="translate(118,221)"/>
<path d="M0 0 C3.94139078 1.66751148 6.7892812 4.22710649 10 7 C5.94654898 7 4.1784671 5.41839888 1 3 C0.67 2.01 0.34 1.02 0 0 Z " fill="#46ad4b" transform="translate(312,143)"/>
<path d="M0 0 C-6.4 3.07692308 -6.4 3.07692308 -9.4375 2.6875 C-9.953125 2.460625 -10.46875 2.23375 -11 2 C-10.01 2 -9.02 2 -8 2 C-8 1.34 -8 0.68 -8 0 C-4.94736336 -0.98120464 -3.05263664 -0.98120464 0 0 Z " fill="#46ad4b" transform="translate(196,112)"/>
<path d="M0 0 C2.475 0.495 2.475 0.495 5 1 C5 1.66 5 2.32 5 3 C5.66 3.33 6.32 3.66 7 4 C4.69 4.33 2.38 4.66 0 5 C0 4.34 0 3.68 0 3 C0.99 3 1.98 3 3 3 C3 2.34 3 1.68 3 1 C2.01 0.67 1.02 0.34 0 0 Z " fill="#46ad4b" transform="translate(227,98)"/>
<path d="M0 0 C2.475 0.99 2.475 0.99 5 2 C4.67 2.99 4.34 3.98 4 5 C1.36 5 -1.28 5 -4 5 C-4 4.67 -4 4.34 -4 4 C-2.02 3.67 -0.04 3.34 2 3 C1.34 2.67 0.68 2.34 0 2 C0 1.34 0 0.68 0 0 Z " fill="#46ad4b" transform="translate(245,397)"/>
<path d="M0 0 C0.6875 1.625 0.6875 1.625 1 4 C-0.4375 7.25 -0.4375 7.25 -2 10 C-2.66 10 -3.32 10 -4 10 C-3.29445932 6.33118845 -1.72264494 3.29549466 0 0 Z " fill="#46ad4b" transform="translate(188,240)"/>
<path d="M0 0 C0.66 0 1.32 0 2 0 C1.45276317 3.37462715 0.9451 5.08235 -1 8 C-1.66 8 -2.32 8 -3 8 C-1.125 2.25 -1.125 2.25 0 0 Z " fill="#46ad4b" transform="translate(128,123)"/>
<path d="M0 0 C3.14737182 0.69941596 6.02588876 1.76078698 9 3 C9 3.66 9 4.32 9 5 C5.65626525 4.44271087 2.96687001 3.64826111 0 2 C0 1.34 0 0.68 0 0 Z " fill="#46ad4b" transform="translate(285,126)"/>
<path d="M0 0 C3.93673644 1.31224548 6.22719294 2.91910327 9 6 C4.58763974 6 3.21615077 3.9302707 0 1 C0 0.67 0 0.34 0 0 Z " fill="#46ad4b" transform="translate(166,362)"/>
<path d="M0 0 C2.475 0.99 2.475 0.99 5 2 C5 1.34 5 0.68 5 0 C5.66 0 6.32 0 7 0 C6.67 1.65 6.34 3.3 6 5 C5.01 5 4.02 5 3 5 C1.3125 2.5 1.3125 2.5 0 0 Z " fill="#46ad4b" transform="translate(188,321)"/>
<path d="M0 0 C0.66 0 1.32 0 2 0 C5 5.75 5 5.75 5 8 C4.01 7.67 3.02 7.34 2 7 C0.8125 3.4375 0.8125 3.4375 0 0 Z " fill="#46ad4b" transform="translate(140,268)"/>
<path d="M0 0 C4.455 0.99 4.455 0.99 9 2 C9 2.66 9 3.32 9 4 C6.69 3.67 4.38 3.34 2 3 C2 2.34 2 1.68 2 1 C1.34 0.67 0.68 0.34 0 0 Z " fill="#46ad4b" transform="translate(263,116)"/>
<path d="M0 0 C3.68754757 0.49831724 5.60490662 1.10067643 8 4 C7.01 4.495 7.01 4.495 6 5 C3.875 4.0625 3.875 4.0625 2 3 C2 2.34 2 1.68 2 1 C1.34 0.67 0.68 0.34 0 0 Z " fill="#46ad4b" transform="translate(193,380)"/>
<path d="M0 0 C0.66 0.33 1.32 0.66 2 1 C1.67 2.98 1.34 4.96 1 7 C0.34 7 -0.32 7 -1 7 C-2 4 -2 4 -1.0625 1.8125 C-0.5365625 0.9153125 -0.5365625 0.9153125 0 0 Z " fill="#46ad4b" transform="translate(408,360)"/>
<path d="M0 0 C0.66 0 1.32 0 2 0 C1.75 2.375 1.75 2.375 1 5 C-1.0625 6.3125 -1.0625 6.3125 -3 7 C-2.01 4.69 -1.02 2.38 0 0 Z " fill="#46ad4b" transform="translate(378,351)"/>
<path d="M0 0 C4.875 2.625 4.875 2.625 6 6 C4.125 5.8125 4.125 5.8125 2 5 C0.75 2.4375 0.75 2.4375 0 0 Z " fill="#46ad4b" transform="translate(168,308)"/>
<path d="M0 0 C2.99324263 1.0975223 3.84610901 1.67682892 5.25 4.625 C5.4975 5.40875 5.745 6.1925 6 7 C3.00675737 5.9024777 2.15389099 5.32317108 0.75 2.375 C0.5025 1.59125 0.255 0.8075 0 0 Z " fill="#46ad4b" transform="translate(170,300)"/>
<path d="M0 0 C-5.75 4 -5.75 4 -8 4 C-7 1 -7 1 -4.5625 -0.25 C-2 -1 -2 -1 0 0 Z " fill="#46ad4b" transform="translate(185,116)"/>
</svg>
